<?xml version="1.0" encoding="utf-8"?>
<!-- Generator: Adobe Illustrator 22.1.0, SVG Export Plug-In . SVG Version: 6.00 Build 0)  -->
<svg version="1.1" id="Layer_1" xmlns="http://www.w3.org/2000/svg" xmlns:xlink="http://www.w3.org/1999/xlink" x="0px" y="0px"
	 viewBox="0 0 1920 2100" style="enable-background:new 0 0 1920 2100;" xml:space="preserve">
<style type="text/css">
	.st0{fill:#4D4D82;}
	.st1{fill:#28285A;}
	.st2{fill:#414D99;}
	.st3{fill:#5962B5;}
	.st4{fill:#9E9AB7;}
	.st5{fill:#3B3E7A;}
</style>
<g id="Layer_2_1_">
	<rect x="0.6" class="st0" width="1919.3" height="987"/>
</g>
<g id="Layer_1_1_">
	<g>
		<path class="st1" d="M0.6,970.4c18.7-6,37.4-23.4,56.6-44.2c1.6-1.3,3.8-1.5,5.5-2.9c4.7-3.9,8.4-4.8,16.5-5c2.4,0,4-0.6,6,0.7
			c8.2,5.4,15.8,11.4,19.1,21.3c1.3,3.8,3.6,7.2,5.3,10.8c0.8,1.6,1.6,3,3.1,4c0,0,0.1,0,0.1,0.1c5.7,3.9,13.5,2.1,16.8-3.9
			c3.4-6.2,6.8-12.3,10.2-18.5c1.6,2.5,1.4,5.5,2.2,8.3c0.4,1.3,0.7,2.8,2.3,2.9c5,0.5,9.9,0.6,14.9-0.1c1.6-0.2,2.5-1.7,3.5-2.9
			c5.1-6.2,5.8-13.5,3.8-21.3c-0.4-1.4-0.3-2.9,0.3-4.2c3.6-8.4,6-17.3,11.9-24.9c4.7-6,10.2-6.8,16.7-5.8c3.6,0.6,7.1,1.8,10.7,2.3
			c4.3,0.6,8.2,2.1,11.4,5c4.4,4,9.5,4.4,15,3.3c1.7-0.3,3.4-0.9,5,0.1c3.8,2.5,7.9,4.5,10.3,8.8c4.2,7.5,8.9,14.7,14.9,21
			c0.9,1,1.6,2.4,3.2,2c1.5-0.4,1.6-1.7,1.6-2.9c0-2.4-0.2-6.2-0.6-8.5c-1-5.3-0.4-10.6-0.4-15.9c0-3.3,1.6-7.4,6.6-7.6
			c4.2-0.2,5.9,0.1,9.2-2.5c3.6-2.7,10.9-2.8,14.8-1.9c3,0.7,6.1,0.7,9.1,0.9c8.7,0.5,16.6,2.4,19.5,12.4c1.3,4.4,4.6,7.2,9.5,8.1
			c3,0.6,6.3,1.1,8.6,3.7c-7.8,7.2-12.1,9.6-19.4,11.2c-14,3.1-28,6.1-42.4,7.3c-5.7,0.4-10.9,2.1-15.2,6
			c-8.2,7.5-18.3,11.1-28.7,13.9c-12.1,3.3-23.2,9-34.7,13.6c-1.4,0.6-2.6,1.6-3.9,2.5c-15,11-29.9,22-44.8,33.1c-2.7,2-5.5,3-9,3.3
			c-6.7,0.5-13.3,1.6-19.9,2.5c-13.3,1.8-26.5,4-39.8,5.2c-16.5,1.6-32.4,5.4-48.3,9.9c-1.8,0.5-3.9,1-4.8,2.9
			c-2.5,5.1-6.3,9.6-8.3,15.1c2.2-0.3,3.9-1.6,5.5-3c7.3-6.1,16.1-9,25-10.9c26.2-5.5,52.7-9.7,79.2-13.8c5.2-0.8,10.7-0.9,15.5-3.7
			c10-5.7,20.1-11.2,29.8-17.3s20.2-8.9,31.5-8.8c7.3,0.1,14.5-1.2,21.7-1.5c9.9-0.4,20-3.4,28.2-10.7c4.4-4,10.3-5.6,16.2-5.3
			c10.9,0.6,20.8-8,32.3-6.3c3.8,0.6,7.6,0.8,11.4,0.8c6.5,0,13-0.6,19.5-0.9c6.3-0.3,12.1-1.2,17.5-4.6c1-0.6,2-1.2,3-1.7
			c7.2-3.3,13.8-7.5,19.3-13.1c5.2-5.2,8.8-11.6,13.2-17.4c1.2-1.6,1.7-3.7,1.2-5.7c-1.6-7.1-3.7-13.9-7.6-20.1
			c-2.5-3.9-3.8-8.3-4.7-12.9c-0.3-1.3-0.2-2.8-0.9-3.9c-2-3.2-1-5.7,0.9-8.4c2.5-3.6,5.1-7.2,6.7-11.4c2-5.5,1.5-7.8-3.2-11.4
			c-2.1-1.6-3.8-3.3-4.3-5.9c-1.5-7.6-2-15.2-1.1-22.9c0.5-4.8,2.1-8.9,5.6-12.8c4.8-5.5,10-10.6,15.1-15.7
			c7.2-7.2,14.3-14.4,20.7-22.3c10.2-12.5,21.2-24.2,34-34c3.6-2.8,7.3-5.7,10.3-9.1c5.7-6.4,11.2-13.1,16.4-19.9
			c2.6-3.3,5.7-6.4,7.2-10.4c-1-0.6-1.5-0.3-2,0c-9.4,6.7-17.4,14.9-23.7,24.6c-1.4,2.2-3,4.4-5,6.1c-3,2.5-6.2,4.7-9.2,7.2
			c-9.5,8-20.1,14.8-27.9,24.5c-11.1,13.7-24.1,25.7-35.7,38.9c-1.7,1.9-3.4,3.5-4,6.2c-0.7,3-3.3,4.7-5.6,6.3
			c-2.7,1.9-5.5,3.7-8.4,5.4c-12,6.8-23.4,14.5-33.9,23.2c-5.6,4.6-11.3,7.7-18.2,9c-3.3,0.6-6,2.5-8.6,4.5
			c-9.9,7.5-19.7,15.2-30.7,21.2c-3.6,2-7,3.5-11.2,3.7c-4.9,0.2-9.8,1.4-14.8,1.8c-4.9,0.3-9.9,1.4-14.6-1c0.4-0.4,0.8-0.8,1.3-1.1
			c19.3-11.8,38.6-23.6,60.4-30.3c8.5-2.6,12.9-8.8,14.5-16.8c4.6-23.5,8.7-47.1,9.5-71.1c0.1-3.5,0.3-6.9,2.7-9.7
			c1-1.2,1-2.6,0.4-4.2c-0.6-1.6-0.9-3.2-1.2-4.9c-1.3-7.7-4.6-15.2-1.4-23.2c0.2-0.6-0.1-1.5-0.4-2.2c-3-6.6-3.5-14.1-7.7-20.3
			c-0.1-0.1-0.2-0.3-0.2-0.5c-1.3-4.9-2-9.6-1.3-14.8c1.4-9.9,1.1-19.9,3.5-29.9c2.2-9.2,1.7-19,2.4-28.6c22.8-2,45.6-4,68.3-6
			c-2.3-0.9-4.6-0.9-6.8-1c-19.7-0.6-39.3,1.9-59,1.2c-1.9-0.1-3.8,0.3-5.6,1.1c-10.9-4.6-20.1-12-29.9-18.5
			c-2.2-1.5-3.2-4.6-1.7-7.7c0.6-1.2,0.8-2.5,1.2-3.8c3.9-2.8,3.9-2.8,2.2-7c2.3-3.7,5.3-4.8,6.8-2.1c1.6,2.9,3.6,2.8,6.1,2.6
			c2.4-0.2,4.9-0.2,7.3-0.3c0.6,0.8,1.4,0.9,2.1,0.2c4.2,0.2,8.4,0.2,12.7-0.4c2.1,0,4.2,0.1,6.3,0.1c6.1-0.1,6.5-0.7,7.5-6.9
			c0.2-1.1,0.1-2.2,0.1-3.3c-0.3-4.8,1.2-9.4,1.3-14.2c0-1.4,0.6-2.6,1.9-3.3c0,2.5,0,4.9,0,7.4c0,5.1,0.5,5.5,5.5,5
			c2.6-0.3,4.4-1.1,4.1-4.1c-0.1-0.9,0-1.9,0-2.8c0.2-8.7-0.7-9.3-9.4-6.5c-1.6-3-1-6.3-0.8-9.5c0.1-3.2,0.9-6.3,1.1-9.6
			c0.6-9.1,1.5-18.1,2.3-27.1c0.1-1.4,0.7-2.5,1.7-3.5c-0.6,8.8-1.3,17.5-1.7,26.3c-0.3,7.4-0.1,7.5,7.1,6.7c4.2-0.4,4.2-0.4,4.1-5
			c-0.1-7.1-0.6-14.1-0.1-21.2c0.5-8.3-0.1-8.8-8.5-7.4c-0.4,0.1-0.7,0.4-1,0.6c-0.5-2.1-0.7-4.2-0.5-6.3
			c1.2-11.4,2.2-22.8,3.6-34.2c0.4-3.3,0.1-6.9,2-10c0.8,0.9,1.6,1.9,2.5,0.1c4-8.3,8.1-16.3,6.3-26.8c-1.3-7.6-0.4-15.3,1.4-22.8
			c2-8.2-0.8-16.1,0.3-24.2c0.4-2.8,1.3-5.6,0.1-8.5c-0.5-1.2,0.4-2.2,1-3.1c4.9-7.6,9.8-15.1,14.6-22.6c0.6,5.5-1.7,10.5-2.9,15.7
			c-1.7,7.3-1.7,7,5.6,8.4c3.5,0.7,7.9-0.4,10.5,3.6c-0.4,5-0.8,9.9-1.2,14.9c-0.1,1.5-1,2.5-0.6,4.9c-1.8,5.1,0,4,1.4,4.1
			c0.9,0.1,1.9-0.1,2.9-0.1c13.5-1.2,27.1-2.3,40.6-3.5c12.8-1.1,25.6-2.3,38.3-3.3c2.6-0.2,3.9-1,3.7-3.6c-0.1-0.9,0-2.3,0-3.2
			c0-6.9-1.8-13.9,1.8-20.4c-0.8-6.1,2-11.1,4.4-16.4c6.9-15.8,7.9-33,10.9-49.7c1.3-7.3,1.6-14.8,2.5-22.3c0.1-1.3,0.4-2.9,2.2-2.7
			c1.4,0.2,1.5,1.6,1.6,2.7c0,0.6-0.2,1.1-0.2,1.7c-2,2.1-1.3,4.7-1.3,7.1c0,17-1.9,33.9-1.3,50.9c0.1,2.4-0.7,4.9-1,7.4
			c-0.2,2.2-1.1,3.6-3.5,3.8c-1.9,0.1-3.2,1-3.8,2.9c-1.2,3.6-2.4,7.2-3.6,10.9c-0.4,1.1-0.4,2.5,0.9,3c4.3,1.7,8.1,4.9,13.3,4
			c3.3-0.5,6.9-0.1,10.3-0.1c0.2,1.7,0.9,3.9-0.2,5c-3,3.3-1.4,6.9-1.5,10.4c-0.1,3,1.1,3.9,4.2,3.6c8.8-0.8,17.6-1.1,26.4-2
			c11-1.1,22.1-2.7,33.1-4c2.6-0.3,3.9-1.1,3.1-5.1c-1.3-6-1.3-12.3-0.9-18.4c0.2-3.5-0.3-5.3-3.2-6.6c-4-1.8-4.3-2.9-2.7-7.2
			c0.7-2,1.6-3.9,2.4-5.8c9.9-23.4,19.9-46.9,29.8-70.3c0.9-2.1,2.1-4.1,2.1-6.5c0.3-13.2,0.6-26.4,0.9-39.6c0-1.4-0.1-2.5-1.8-3.1
			c-4-1.4-5.2-4.7-5.5-8.6c-0.1-1.3,0.3-2.9-1.2-3.6c-3.6-1.6-3.3-4.8-3.2-7.8c0.3-7.7,0.7-15.3,1-23c0.2-6-0.7-12.2,3.8-17.2
			c0.5-0.5,0.6-1.4,0.9-2.1c2.3-4.3,2.3-9.2,4.1-14.2c2,5.9,1.7,11.9,4.5,17.2c2.8-2.6,2.6-6.6,5.2-10c2.2,6,2,12.1,3.9,17.9
			c2.8-2.2,2.5-6,4.9-8.4c1.7,8.5,3.2,16.6,5,24.6c1,4.4,2.4,8.8,6.3,12c0.5-1.1,1-2,1.4-2.8c11.4-28.2,22.8-56.5,34.1-84.7
			c1.9-4.8,4-9.6,5.1-14.6c1-4.7,2.7-10.2,2.6-7.1c-0.1,4.1,1.1,7.9,2,11.8c-1.4-0.5-2.9-1.6-3.3,1.1c-0.4,2.6-1,5.2-1.1,7.9
			c-0.3,5.7-0.8,11.4-1.4,17.1c-1,9.5-2.2,19-3.1,28.5c-1.3,13.3-2.4,26.6-3.7,39.9c-1.3,13.3-3,26.6-4.3,39.9
			c-1.7,16.9-2.8,31.4-4.5,48.3c-1.5,15.5-2.9,28.5-4,41.8c-0.2,2.7,0.6,3,4.4,3.5c6.6,0.9,13.3,1.5,20,1.9
			c5.4,0.3,10.9,0.4,15.9,1.9c17.8,5.1,36,9.1,51.2,20.7c1.6,1.2,3.4,2.1,5.1,3c1,0.5,1.8,1.4,3.3,0.5c-0.2-3.7-1.6-7.2-2.7-10.8
			c-0.6-1.9-1.9-3.9-0.4-6c1.9,5.2,4,10.3,5.7,15.6c1.2,3.8,0.4,6-3.4,7.2c-3.5,1-3.7,3-3.7,5.9c0.1,10.1,0,20.3,0.2,30.4
			c0.1,5.3-1.5,9.3-6.6,11.5c-2.2,1-3.1,2.5-3.1,4.9c-0.4,24.6-0.8,49.3-1.3,73.9c-0.6,0-1.2,0.1-1.7,0c-3.5-0.7-7.2-3.3-10.2,1
			c-0.2,0.3-1.1,0.2-1.7,0.2c-8.4-0.1-16.8,1.9-25.3,1.2c-2-0.2-3.9,0-5.9,0.3c-10.8,1.5-21.6,1.2-32.4,1.8
			c-10.7,0.6-21.4,2-32.1,1.4c-2.5-0.1-4.5,0.8-5.9,2.9c-4.9,8-9.9,15.9-14.8,24c-1.7,2.8-1.1,3.9,2.1,4c9.1,0.4,18.2-2.2,27.2,0.2
			c7.3,2,15.1,2.3,22.2-0.3c10.4-3.8,21.5-1.1,32.1-2.4c11.1-1.4,22.2-0.5,33.3-0.8c3.7-0.1,4.3,0.8,4.5,4.4c0.1,1.5,0,3.1,0,4.6
			c0,22.6,0,45.2,0,67.8c0,6.7-0.1,13.4,0,20.1c0.1,4.9,0.6,5.2,5.4,4.6c3.6-0.5,7.1-1.5,10.8-0.4H740c4.6,3.7,9.5,7.1,13.7,11.1
			c4.5,4.3,9.1,5.9,14.9,3.3h0.1c1.1,1.8,2.8,2.7,4.8,2.7c3.6-0.1,5.3,2.1,7,4.9c3.5,6.2,7.7,11.8,13.6,16c1.2,1.6,3,1.2,4.6,1.4
			c5.6,3.9,11.7,4.9,18.5,3.6c4.8-1,9.6-1.6,14.2-3.1c1.8-0.6,3.6-0.7,5.5-0.5c7.8,0.9,15.7,1.7,23.5,2.2c6.8,0.4,13.6,1,20.4,1.8
			c4.8,0.6,9.7,0.7,14.5,1.3c4.6,0.6,5.4-0.4,5.8-4.8c0.3-3.4,0.8-6.8,1.2-10.2c8-0.3,16.1-0.6,24.1-0.9c4.5-0.2,4.5-0.2,4.6-5
			c0-1,0-1.9,0-2.9c-0.3-30.3-0.6-60.6-0.7-90.8c0-4.5-1.2-7.2-5.5-9.3c-6.6-3.3-8.2-8.3-5.6-15.4c1.3-3.6,3-7,4.4-10.6
			c0.6-1.4,1.9-2.6,1.3-4.3c-1.1-3.3,0.6-5.2,3.3-6.3c2.5-1,3.9-2.8,5.3-5c5.6-8.4,10.1-17.7,17-25.2c0.8-0.9,0.9-1.6,0.1-2.9
			c-1.7-2.7-1.4-3.5,1.6-3.2c4.4,0.5,6.6-1.5,8-5.3c0.7-1.9,1.6-3.7,2.7-5.5c5.9-9.5,8.4-19.8,7.2-31c-0.3-2.6-0.7-5.5,0.4-8
			c2.5-6,5.2-11.9,8-18.3c2.6,4.1,3.5,8.3,5.4,12c4.7,9.1,2.6,18.8,2.2,28.2c-0.2,4.7-0.3,5.7,4.3,6.4c4.9,0.7,9.9,1.1,14.8,1.8
			c2.2,0.3,3-0.5,3.4-2.6c0.5-2.6,2.8-4.4,5.4-4.4c1.1,0,2.2,0,3.3-0.1c2.4-0.2,3.6,0.7,3.7,3.1c0.1,6.1,3.4,10.8,6.5,15.6
			c4.3,6.5,8.5,13.2,12.8,19.8c0.8,1.2,1.1,2.9,3.1,3.1c2-6.4,3.7-12.9,4.9-19.5h0.4h0.4c0.3,3.3,1,6.4,2.2,9.4
			c3.6,9.3,7,18.6,10.4,28c0.5,1.3,0.8,2.8,2,3.8c4.6-4.6,7.1-9.7,7.4-15.9h0.5h0.5c-0.3,5.2,1.9,9.7,4.5,13.9
			c1.1,1.8,2.1,3.6,0.1,5.6c-1,1-0.7,2.5-0.6,3.9c0,2.9,0.5,5.8,0.1,8.6c-0.8,6,2.9,10.1,5.9,14.5c1.9,2.7,4.9,2.1,6.1-1
			c-1.7-3.3,3.4-10.5,2.2-14.1c0,0,0.3,1.8,1.6,4.7c1.5,3.4,2.4,6.9,1.9,10.6c-0.2,1.4-0.1,2.8,1.2,3.6c2.9,1.7,2.4,4.5,2.4,7.2
			c0.1,7.7,0,7.7,7.8,7.3c1,12.6,0.2,25.2,1.6,37.8c0.9,8.6,1,17.3,0.8,26c-0.5,22.4,2.1,44.7,1.5,67.1c-0.2,5.9,1,6.6,6.9,5.5
			c1.3-0.2,2.6-0.6,3.9-0.9c6.3-1.6,12.7-2.8,19.3-2.4c8.2,0.5,15.9-1.1,23.7-3.7c6-2,12.2-3.3,17.9,1.5c2.2,1.9,5.2,2.3,8.2,2.2
			c3.3,0,6.7-0.4,9.7,0.4c8,2,16.1,3.5,24.4,3.2c1.5-0.1,3,0.5,4.5,0.7c5.6,0.7,11,0.6,16.1-2.5c2.6-1.6,5.4-2.9,8.2-4.1
			c3.9-1.8,7.5-3.8,8.7-8.4c0.2-0.8,1-1.8,1.8-2.3c6.1-3.9,12.4-7,19.9-4.4c2.9,1,5.8,2,8.6,3.2c6,2.6,12.1,3.3,18.6,2.9
			c2.8-0.2,4.3-1.3,4.3-4.2c-0.1-4,0.3-8.1-0.2-12.1c-1.6-11.4-0.2-23-2-34.4c1.2-2.5-0.2-4.9-0.4-7.4c0.1-1.5,0.5-3.1,0.2-4.5
			c-2.1-9.4-1.2-19-1.8-28.4c-0.8-12.9-2.1-25.8-1.6-38.7c14.9-2.7,29.7-5.4,44.6-8.1c1.6-0.3,2.9-0.7,3.9-2.1
			c1.8-2.4,3.4-5.2,7-1.6c1.2,1.2,3.7,0.1,5.6,0.1c2.4,0.1,3.6-1,3.2-3.4c-0.6-3.5,0.9-6.3,2.6-9.1c4.1-6.9,8.1-13.9,12.3-20.7
			c1.7-2.7,2.5-5.4,1.9-8.7c-0.6-3.3-0.6-6.8,0-10.2c0.2,3.1,1.6,6,1.7,9c0.1,3.9,1.9,6.8,4.5,9.6c6.4,6.9,12.4,14.1,19,20.8
			c3.7,3.8,5.6,7.8,5.5,13.2c-0.1,6.2,0.2,6.2,6.5,5.9c0.6,0,1.1-0.1,1.7-0.1c3,0.1,4.7-1.1,4-4.4c-0.5-2.4,1.8-4.2,1.5-6.6
			c-0.1-1.1,0.8-1.8,1.7-2c1.2-0.3,2.2,0.3,3,1.2c1.1,1.3,0.9,2.9,1.1,4.4s0,3.4,1.9,3.8c2.7,0.6,2.3,2.6,2.5,4.4
			c0.6,5.9,1.2,11.8,1.8,17.7c1.4,13.7,2.5,27.4,4.5,41.1c0.9,6.4,4.2,10.5,10.4,11.4c2.5,0.3,5,0.4,7.4,0.8c3.9,0.5,5,2.3,3.4,5.7
			c-1.2,2.5-1.3,4.6-0.2,7.6c0.8,2.3,1,4.8,0.8,7.3c-0.4,4.4,0.6,6,3.7,6.4c4.4,0.5,8.9,0.7,13.3,1.5c7.3,1.3,14.8,1.3,21.9,3
			c0.3,2-1,3.6-0.3,5.4c-1.4,5.7-6.1,9.1-9.1,13.7c-2.4,3.6-5.2,5.1-9.7,3.7c-2.5-0.8-4.9,0.7-5.4,3.2c-1.5,8-2.8,16-4.2,24.1
			c-0.5,2.7-1.4,5.1-3.9,6.6c-7.2,4.6-12.2,12-15.3,20c-2.5,6.5-5.7,12.8-6.1,19.8c-0.4,6.6-3.7,11.5-8.1,16
			c-5.2,5.3-10.3,10.6-15.7,15.7c-2.7,2.5-4.2,6.1-4.2,9.8c0,9.5,0.7,19.1-0.9,28.6c-0.3,1.8-0.4,3.8,0.6,6.4c0.7-2.5,1.2-4.2,1.6-6
			c1.9-8.8,3.8-17.6,5.8-26.4c0.7-3.4,2-6.4,5-8.8c3.2-2.6,5.9-5.7,8.5-8.9c7.1-8.8,16.3-15.8,18.4-27.5c1-5.4,2.8-10.8,4.8-15.9
			c2.7-6.8,5.8-13.4,13.2-16.6c2.5-1.1,3.4-3.4,4-6c1.4-6.4,3.1-12.7,4.1-19.1c0.6-3.8,2.4-6.2,5.5-8.1c9.9-6.2,14.2-15.6,14.5-27
			c0.9-1.7,1.8-3.3,2.7-5c1.7-3.3,4.6-5,8-3.9c3.6,1.2,5.9-0.2,8.2-2.4c1.5-1.5,3-2.7,5.3-2.4c6.2,0.8,12.3,1.3,18.5,0.8
			c5.7-0.5,11.1,0,15.4-3.7c1.3-1.1,2.8-2.1,4.7-1.1c3.4,1.9,6.8,2.1,10.2-0.2c0.8-0.6,2.3-0.5,3.4-0.4c5.6,0.6,10-3.8,15.4-3.7
			c0.6,0,1.3-1.3,1.9-2c2.9-4,5.5-8.3,8.3-12.4c2.9-4.2,6.4-7.8,7.4-13c0.7-3.4,3.5-5.7,4.9-8.6c1.6-3.5,3.9-5.6,7.1-7
			c5.9-2.5,11.1-6,15.8-10.2c3-2.7,6.5-3.9,10.6-2.3c2,0.8,4.6,1.6,6,0.1c3.3-3.4,7.3-6.6,8.4-11.4c1.5-6.3,3.7-12.6,3.6-19.1
			c-0.1-6.4,2.8-10.8,7.5-14.6c5.1-4.1,10-8.4,13.8-13.7c1.3-1.8,3.1-3,5.1-3.9c2.6-1.2,3.9-3.3,5.1-5.8c1.1-2.4,1.9-5,4.2-6.7
			c11.9-9,22.4-19.7,33.7-29.5c7.4-6.4,16.1-11.1,22.5-18.6c3.3-3.9,6.6-8,12.2-8.9c0.7-0.1,1.4-0.7,1.9-1.3
			c1.8-2.1,4.1-2.6,6.6-2.2c3.6,0.6,7.2,0.4,10.5-1.1c3.2-1.5,6.5-2.6,9.8-4c1.8-0.8,3.6-1.4,5.5-1c2.8,0.6,4.7-0.6,6.4-2.7
			c6.2-7.3,13.1-14,20.3-20.2c5.1-4.3,10-9.1,16.4-11.4c9.4-3.3,18.4-7.5,27.3-12.1c8.8-4.5,17.6-9.3,24.9-16.3
			c1.6-1.5,2.9-3.5,5.4-3.8c-0.1,2.5,0,1533.5,0,1745.6c-27.4,0-1918.7,0-1918.7,0S-0.7,970.8,0.6,970.4z M1085.3,1003
			c-0.3-0.4-0.4-1-0.8-1.3c-0.3-0.2-0.7,0.2-0.5,0.5C1084.3,1002.5,1084.9,1002.7,1085.3,1003z M924,746c2.5,7,4,14.5,8.3,20.9
			c1.1-0.7,1.1-1.5,1.1-2.2c0.1-17.9,0.3-35.9-1.1-53.7c-0.3-3.8-2.4-6.2-5.7-6.9c-3.9-0.7-5.8,0.3-8.1,4.4c-1.8,2.4-1.9,5.3-2,8.1
			c-0.1,7-0.2,14.1-0.3,21.1C916.2,745.5,916.2,745.5,924,746z M390.7,561.1c0.8-0.3,1.5-0.7,2.3-1c2.3-0.3,4.5-0.5,6.8-0.8
			c1-0.1,2-0.4,2.1-1.5c0.4-3.8,0.5-7.5,0.2-11.3c0-0.3-0.3-0.8-0.6-0.9c-2.2-1-4.4-0.4-6.7-0.3c-2.1,0.1-1.9,1.9-2.3,3.3
			c-1.6-5.8-0.5-11.5,0.3-17.2c0.6-4.6-0.8-9.3,1-13.8c0,1.5,0.1,3.1,0.1,4.6c-0.1,7.3-0.1,7.3,7.1,6.8c4-0.3,4.2-0.4,4.1-4.4
			c-0.1-7.6-0.7-15.2-0.1-22.9c0.6-7-0.4-7.7-7.2-6.6c-1,0.2-1.8,0.7-2.4,1.4c-1.3-5.8,0.7-11.4,0.7-17.1c0-6.9,0.7-13.8,1.6-20.6
			c1-7.6,0.2-14.8-1.4-22.2c-0.2-1.2,0.2-2.8-2.4-3.3c-2.6,5.9-7.5,11.3-7.9,18c-0.6,11.8-1.9,23.6-2.7,35.4
			c-0.5,7.2-0.8,14.5-1.4,21.7c-0.7,7.6-1.9,15.2-1.9,22.8c-0.7,6.5-1.6,12.9-1.9,19.4c-0.4,7.1-1.8,14-1.6,21.2
			c0.2,4.8,0.7,5.3,5.2,5.5c1.1,0,2.3,0,3.4,0c2.8,0.1,4.3-1.4,4.8-4c0.3-1.3,0.3-2.6,0.5-4C394.9,565.6,394.9,565.1,390.7,561.1z
			 M1074.7,741.1c-1.2-7.2-0.7-14.5-1-21.7c-0.1-3.4-0.6-6.8-1.3-10.2c-0.7-3.6-4.3-6.2-7.9-6.4c-6-0.3-9.8,3.3-10.3,9.7
			c-0.5,7.7,0.9,15.2,1,22.8c0.3,18.7-0.3,37.4,1.2,56.1c0.2,2.8,0.5,5.4,2.2,8.4c2.5-3.3,3.5-6.8,5.9-9.3c2.8-3.1,5.6-6.2,8.5-9.3
			c2.3-2.5,3.3-5.3,3.1-8.8C1075.5,762,1075.2,751.5,1074.7,741.1z M951.3,800.4c1.8,2.1,4.3,3.1,6.6,4.4c4.9,2.7,7.5,1.1,7.4-4.5
			c-0.7-22.9-1.5-45.8-2.3-68.7c-0.1-2.7-0.1-5.4-0.9-7.9c0-3.6,0.2-7.3-0.2-10.9c-0.6-4.8-4.5-7.8-9.3-7.7c-4.5,0.1-8,3.1-8.7,7.7
			c-0.3,1.9-0.2,3.8-0.2,5.7c0.1,21,0,42.1,0.9,63.1C945.1,788.9,946.4,795.1,951.3,800.4z M423.8,493.3c-1-2-1.2-4-1.1-6.2
			c0.6-7.6,1.1-15.3,1.8-22.9c0.9-9.7,1.8-19.4-1.1-29c-0.3-0.9-0.1-2.4-1.6-2.4c-6.8,9-8.9,19.3-9.5,30.2
			c-0.6,11.6-1.5,23.3-2.5,34.9c-1,11-2.1,22.1-2.2,33.2c-0.9,1.3-1,2.8-1.1,4.4c-0.3,10.8-2.1,21.6-2.6,32.4
			c-0.4,8.3-0.5,8.6,7.9,8.2c0.2,0,0.4,0,0.6,0c3.7-0.3,4.3-0.8,4.5-4.4c0.2-2.7,0.2-5.3,0.4-8c0.6-8.5,1.3-17.1,1.9-25.6
			c0.5-3.8-1.2-8.1,2.2-11.4c2.3,0,4.6,0.2,6.9,0.1c4.4-0.2,4.4-0.3,4.4-4.7c-0.1-6.7-0.6-13.3-0.2-20
			C433.1,492.4,434.5,492.9,423.8,493.3z M991.1,730.2c0-5.2,0.1-10.3-0.1-15.5c-0.2-6-5.1-10.7-10.6-10.6c-5.5,0.1-9.7,4.5-10,10.5
			c-0.1,1.1,0,2.3,0,3.4c0,7.4,0.9,14.9,0.9,22.3c0,18.9,1.6,37.8,1.5,56.7c-0.1,12.4,0,12.4,10.2,19.6c8.2,3.3,11.6,5.4,11.4-7.9
			c-0.4-24.5-1.5-49-2.4-73.4C991.8,733.6,991.3,731.9,991.1,730.2z M1017.5,836c1.5,0.1,2.4,2,4.7,1c-0.8-34.2-1.7-68.7-2.5-103.1
			c0.3-7.1,0-14.1-1-21.2c-0.7-5.2-3.4-8.4-8.1-8.8c-5.2-0.5-8.9,2-10.4,7c-0.8,2.6-1.1,5.2-1.1,7.9c-0.1,6.5,0.8,13,1,19.5
			c0.5,24.1,0.1,48.2,1.1,72.3c0.4,8.3,2.8,14.8,9.2,19.9C1012.2,833.1,1015.5,833.8,1017.5,836c-0.9,2.2-2.5,0.2-3.8,0.6
			c-1.7,0.6-2.5,1.7-2.4,3.3s1,2.9,2.8,2.9s2.5-1.3,2.9-2.9C1017.2,838.7,1015.3,837,1017.5,836z M1040.6,839.3
			c4.1-6.5,6.3-13.8,9.7-20.6c1.3-2.6,1.8-5.3,1.7-8.3c-0.5-9-0.8-17.9-1.3-26.9c-0.8-15.2-1.7-30.5-2.5-45.7
			c-0.3-8.2-0.6-16.4-1-24.6c0-0.4-0.1-0.8-0.2-1.1c-1.4-6.2-5.5-9-11.8-8.1c-5.1,0.7-8.7,5.8-7.9,11.5c0.5,3.3,0.4,6.5,0.5,9.7
			c0.1,6.1-0.5,12.3,0.3,18.4c1.8,13.9,1.1,27.9,1.7,41.8c0.8,16.2,2.1,32.4,1.6,48.7C1031.2,840.7,1034.1,842.1,1040.6,839.3z
			 M369.8,496.9c0.4-7.1,0.4-14.2,1.5-21.2c0.9-5.5,0.2-11.1,1.3-16.6c1.8-8.7-0.2-17-2.2-25.6c-5.2,5.6-9.8,16-9.7,23
			c0.1,7.1-1.1,14.1-1.6,21.2c-0.3,5.3-0.6,10.7-1.1,16c-1.1,12.8-2.2,25.5-3.3,38.3c-0.6,7-1.3,14.1-2,21.1
			c-0.5,6.1-1,12.2-1.4,18.3c-0.1,1.7-0.5,3.8,1.1,4.8c2.7,1.9,5.9,1.1,8.9,0.8c2.6-0.2,3.3-2.6,3.5-4.7c0.4-3.8,0.4-7.7,0.5-11.5
			c1.5,0,3.1,0.1,4.6,0c5.2-0.4,5.5-0.5,5.5-5.7c0.1-10.8,1.3-8.9-9-8.8c-0.7-5.1,1.3-10,1.1-15c2.1-0.1,4.2-0.1,6.3-0.3
			c4-0.3,4.1-0.4,4.2-4.4c0-7-0.2-14.1-0.1-21.1C378,497.1,378.1,497.1,369.8,496.9z M489.6,516.4c-0.8-8-0.4-16.1-0.1-24.1
			c0.1-2.3-0.5-3.5-3.1-3.6c-4.6-0.1-5.9,0.2-6.3,2.9c-1.1,9.3-1.8,18.7-2,28c0,2.6,1.2,3.3,3.6,3.2c2.5-0.2,5-0.3,7.5-0.4
			c0.1,1.7,0.4,3.5,0.2,5.1c-1,11.4-2.1,22.8-3.1,34.2c-0.2,2.3-0.1,4.6-0.1,6.9c0,1.1,0,2.5,1.1,3.1c2.8,1.7,5.9,1.1,8.9,0.8
			c2.5-0.3,2.4-2.5,2.8-4.4c1.5-8.9,1.4-17.9,2-26.8c0.6-8.2,1.2-16.4,1.7-24.6c0.3-5.9,0.3-11.8,1-17.7c1-8.7,1.1-17.5,2.2-26.2
			c0.9-7,0.6-14.1,1.8-21.1c1.3-7.8-1.2-15.2-2.8-24c-3.5,6.2-6.2,11.2-8.4,16.5c-0.5,1.2-0.9,2.6-1,3.9c-0.5,9.9-1.7,19.8-2.3,29.7
			c-0.7,11.8-2.5,23.5-2.6,35.4C490.5,514.2,489.9,515.3,489.6,516.4z M459.4,543c-2.8-0.8-5.7-0.2-8.5-0.2c-1,0-1.9,0.3-2.4,1.2
			c-0.6,1-0.8,11.9-0.1,12.4c2.3,1.6,4.8,0.3,7.1,0.4c0.9,0.1,1.9-0.1,2.8-0.1c0,3.6-1.2,7.1-1.2,10.8c0.1,7.2,0.7,7.8,7.9,7.5
			c2.9-0.1,4.6-1.1,5.2-4.1c0.4-2.1,0.8-4.1,0.7-6.3c-0.3-8.6,1.1-17.1,1.5-25.7c0.2-5.7,0.2-11.5,1.1-17.1
			c1.3-8.1,1.1-16.4,1.8-24.5c0.6-7.6,1.1-15.3,1.7-22.8c0.6-6.8,0.6-13.7,1.7-20.5c1.2-8-0.5-15.8-2.6-23.6
			c-0.7,0.3-1.2,0.3-1.3,0.5c-4.7,8.4-9.5,16.7-8.5,26.9c0.1,1.1,0,2.3-0.1,3.4c-1.6,13.3-2.4,26.6-3.3,39.9c-0.1,1.9,0.1,3.9-2.1,5
			c0-3.8,0-7.6,0.1-11.4c0.1-2.3-0.5-3.5-3.1-3.6c-4.5-0.2-5.9,0.2-6.2,2.9c-1,9.5-1.5,19-1.8,28.5c-0.1,2.2,1.1,3,3.3,2.8
			c2.5-0.2,4.9-0.3,7.4-0.4C461.5,531,459.2,537,459.4,543z M1359.4,931.2c0,3.9,0.1,7.7,0.1,11.6c-2.2,6.1-2.2,6.2-9.3,6.1
			c-18-0.4-36,0.8-54,1.1c-3.3,0.1-5.9,1.1-8.1,3.6c-3.5,4-7.2,8-10.7,12c-13.6,15.8-27.1,31.7-40.8,47.4c-2.2,2.5-3.2,5-3.1,8.3
			c0.1,7.3,0,14.6,0,21.9c0,1.5,0,3.1,0.1,4.6c0,1,0.1,2,1.3,2.3c1,0.2,1.8-0.4,2.4-1.2c1-1.4,1.4-3.1,1.8-4.8c1.3-6,2.5-12,3.7-18
			c0.6-2.8,1.5-5.5,3.6-7.7c14.1-14.8,28.3-29.7,42.3-44.6c2.8-3,6.1-4.5,10-5c3.8-0.5,7.6-0.9,11.4-1.4c13.7-1.8,27.3-3.7,40.9-5.4
			c10.1-1.3,20.1-2.5,30.2-3.8c6.6-0.8,13.3-1.6,19.9-2.5c5.5-0.8,5.9-1.5,6.1-7c0.5-14.4,0.3-28.8-5.9-42.2c-0.5-1-0.6-2.2-1-3.3
			c-4.4-13.7-8.7-27.4-13.1-41.1c-0.4-1.1-0.4-2.8-2.3-2.7c-1,0.5-1.3,1.4-1.6,2.3c-5.9,16.2-11.8,32.4-17.8,48.6
			c-1.5,4.1-2.5,8.7-5.1,12.1C1358.2,925.2,1358.1,928,1359.4,931.2z M1631.7,720c-1.5,1.4-2,3.2-2.7,5
			c-6.8,16.7-13.2,33.5-21.3,49.6c-7,13.9-13.1,28.1-19,42.5c-2.2,5.3-3.8,11-7.3,15.6c-4.7,6-9.8,11.8-14.9,17.5
			c-2.5,2.7-4.5,5.6-5.9,9.1c-8.7,21.7-17.6,43.3-26.2,65.1c-11.4,28.7-23.9,56.9-38.2,84.2c-2.9,5.6-5.4,11.5-8.7,16.9
			c-5.7,9.5-7.8,20.4-11.5,30.6c-0.8,2.4,0.2,3.3,2.7,2.3c3.7-1.5,7.3-3.4,11-5c4.3-1.9,7.7-4.7,10.4-8.7
			c5.3-7.7,10.9-15.2,17.8-21.8c3.2-3,5.9-6.6,6.7-11.2c2.1-12.8,6.3-24.8,11.2-36.7c1-2.5,1.6-5.1,3.1-7.4
			c6.1-9.1,12.3-18.1,18-27.4c5.1-8.3,10.2-16.7,12.6-26.3c2.6-10.6,6.3-20.9,9.7-31.3c0.9-2.6,2.2-4.9,4.2-6.7c4.5-4,7-9,8.4-14.7
			c3.8-15.8,8.2-31.5,13.6-46.9c1.2-3.4,1.8-7.1,2.1-10.7c0.8-9.2,2.1-18.2,5.5-26.9c2-5.2,3.6-10.5,5.8-15.6
			c4.1-9.3,7.2-19,9.8-28.8C1629.7,728.1,1631.8,724.3,1631.7,720c0.1-0.1,0.3-0.3,0.4-0.4c0.1-0.1,0-0.3,0-0.4
			C1632,719.4,1631.9,719.7,1631.7,720z M701.5,782.7c-9.6,0.7-18.5,1.1-27.3,2c-9.7,1-19.4,2.5-29.2,2c-6.5-0.4-10.6,2.4-14.3,7.6
			c-7.5,10.8-15,21.7-24.1,31.4c-4.8,5.1-9.4,10.6-9.6,18.4c-0.1,3.4-1.9,6.1-4.7,8.2c-4.1,3.2-7.9,6.7-12.2,9.6
			c-4.6,3.2-8.2,7.2-10.1,12.3c-3.3,8.6-8.7,15.7-14,23c-5.7,7.9-10.6,16.5-19,22c-3,2-5.9,4.2-8.9,6.3c-1.8,1.2-3.5,2.4-4.4,4.4
			c-3.1,7.4-8.5,13.1-13.1,19.5c-3.7,5.2-7.8,9.9-13.2,13.4c-3.3,2-5.1,5-6.1,8.7c-1,3.5-1.6,7.3-3.3,10.4c-3.6,6.6-2.8,13.2-1.1,20
			c0.8,3.1,2.3,4.7,5.2,5.2c2.1,0.3,4.2,0.5,6.3,0.5c10.2,0.1,20.3,0.1,30.5,0c6.7,0,13.5,0.6,20.1-0.3c5.7-0.8,11-0.2,16.5,1
			c2.1,0.5,4.1,0.8,6.2,1.3c1.9,0.4,3.9,0.5,5.6-0.5c4.5-2.6,8.9-5.2,13.3-7.9c2-1.3,3.3-3.2,3.9-5.5c1-4.2,3.8-7,7.1-9.4
			c4.8-3.6,9.5-7.1,14.3-10.6c1.6-1.2,3.4-2.3,3.3-4.4c-0.2-4.6-0.6-9.5-4-12.9c-4.5-4.5-10.2-8.3-16.4-8.8
			c-8-0.7-15.8-2.6-23.9-2.8c-8.2-0.2-10.1-3.8-6.7-11.3c0.1-0.2,0.2-0.3,0.3-0.5c5.4-9.9,10.8-19.9,17.5-29
			c7.6-10.2,14.6-20.6,17.9-33.2c1.4-5.3,5-7.1,10.6-6.2c5.7,0.8,11.4,1.5,17,2.6c2.5,0.5,4.1-0.4,5.2-2.4c0.9-1.5,1.7-3,2.5-4.5
			c3.3-6.5,6.5-13,11.1-18.8c1.9-2.4,2.6-5,2.4-8c-0.3-3.8,0.6-7.4,3-10.2c3.5-4,6.5-8.6,10.6-12.1c8.3-7,16.8-13.9,25.1-21
			C694.7,789.1,698.8,787.1,701.5,782.7z M409.1,1035.7c0.3,0.2,0.7,0.5,1,0.7c0.7-0.3,1.4-0.6,2-1c9.6-7,19.2-14,28.6-21.2
			c3-2.3,5.5-5.3,7.4-8.7c7.1-12.5,14.6-24.7,21.3-37.4c4-7.6,9.6-12.7,17.5-15.5c3.1-1.1,5.9-2.7,8.9-4c1.9-0.9,3.6-2.2,5.1-3.7
			c5.9-5.8,11.2-12.1,16.4-18.4c8.2-9.8,16.3-19.8,24.6-29.5c2-2.3,3.1-4.8,3.7-7.6c2.3-11.1,4.7-22.1,6.8-33.2
			c0.7-3.8,2.4-6.7,5.1-9.4c4.8-4.7,9.4-9.6,14.3-14.1c5.5-5,9.4-11,12.7-17.6c6.1-12.2,12.2-24.3,18.3-36.5c0.9-1.7,1.7-3.5,2.9-5
			c6.5-7.8,12.9-15.7,19.7-23.1c3-3.3,4.8-6.8,5.5-11c1.3-7.9,2.6-15.9,4.1-23.8c0.7-3.5,0.5-6.8-0.5-10.2c-2.8-9.1-3-18.4-1.5-27.8
			c1-6.6,1.9-13.3,3-19.9c0.4-2.3-0.2-3.5-2.7-2.7c-3.9,1.2-8.1,2.3-10.2,6c-2.6,4.4-5.9,8-9.3,11.7c-3.3,3.7-5.3,7.9-6.7,12.5
			c-0.8,2.6-1.7,5.1-2.7,7.6c-7.8,18.5-16.3,36.8-25.7,54.6c-3,5.7-4.6,11.7-6.4,17.7c-3.3,11.3-4.2,23.4-12,33.1
			c-0.4,0.4-0.5,1-0.8,1.5c-7.2,14-13.3,28.4-19.7,42.8c-3.8,8.5-7.9,16.5-16.6,21.1c-6.1,3.3-10.1,8.3-12.9,14.8
			c-6.6,15.1-15.9,28.9-23.5,43.5c-1.6,3.2-4.1,5.4-7.4,6.9c-3.3,1.4-6.5,3.3-9.8,4.8c-3,1.4-5.4,3.4-7.4,6.1
			c-11.8,16.5-22.2,34-33.6,50.8c-1.1,1.6-1.8,3.4-2.6,5.1c-3.1,7.2-6.1,14.5-9.2,21.7C414.2,1023.4,411.6,1029.5,409.1,1035.7z
			 M558.6,428c-4.9,7.8-9.9,15.5-9.4,25.3c0.1,2.1-0.1,4.2-0.3,6.3c-1,11.4-2.2,22.8-3.1,34.2c-0.9,11.4-1.6,22.9-2.5,34.3
			c-0.1,1.1-0.3,2.5-1,3.2c-3.6,4.1-7.2,8.2-11.9,11.7c-1.1-2.4-0.9-4.3-0.8-6.2c0.7-10.3,1.6-20.6,2.1-30.9
			c0.6-13.2,2.2-26.3,2.7-39.5c0.2-5.1,0.2-10.4,1.3-15.4c1.6-7.3-1.1-14-1.8-21c0-0.5-0.5-1.1-0.9-1.3c-0.8-0.4-1.5,0.1-1.9,0.8
			c-2.6,4.9-6,9.6-7,15s-1.1,11-1.5,16.5c-0.5,6.9-0.8,13.7-1.3,20.6c-1,11.6-2.3,23.2-3.2,34.8c-1.2,14.7-1.8,29.4-3.8,43.9
			c0,0.3,0.4,0.6,0.6,1c29.8-4.3,59.7-3.6,89.4,0.2c0.6-1.5-0.1-2.2-0.7-2.9c-5.9-6.7-11.8-13.6-17.9-20.2c-2.6-2.8-3.8-5.6-2.7-9.3
			c0.8-3,0.5-6.1,0.7-9.1c0.4-8,0.8-16,1.4-24c0.6-8.4,1.3-16.8,2.1-25.1c0.6-7.2,1.2-14.5,2-21.7c0.9-7.9-1.3-15.2-3.2-22.8
			c-2.5,3.9-4.4,7.9-6.5,11.7c-2,3.6-2.7,7.4-2.8,11.5c-0.2,6.9-0.9,13.7-1.4,20.6c-0.6,7.2-1.6,14.4-1.9,21.7
			c-0.3,6.7-1.5,13.3-1.5,20c0,2.5-0.9,5.1-1.5,7.8c-4.6-1.8-6.3-9.5-12.9-4.5c-0.5-5.6-0.5-10.5,0-15.5c0.7-7.2,1.4-14.5,1.9-21.7
			c0.6-8.6,1.1-17.2,2.1-25.7C562.6,444.2,561.6,436.1,558.6,428z M769.5,821.5c-0.3-0.3-0.6-0.7-0.9-1c-3.1,1.4-6.3,2.7-9.3,4.1
			c-13.2,6.1-26.4,12.3-39.7,18.3c-3.4,1.6-4.6,3.9-4.9,7.6c-0.4,4.5-0.3,9.3-2.3,13.5c-2.8,5.9-5.7,11.7-8.7,17.5
			c-2.3,4.3-5.3,7.9-10.7,8.7c-3.2,0.5-6.3,1.7-9.5,2.4c-14.1,3.5-14.1,3.5-21.9,16c-2.7,4.3-5,8.8-5.2,13.9
			c-0.2,8.5-1.9,16.7-3.4,25c-0.5,2.7,0.1,4.9,2.1,6.8c6.1,5.7,13.1,9.4,21.5,9.7c8.1,0.3,15.9-2.1,23.9-2.6
			c2.9-0.2,4.7-2.2,5.9-4.8c2.2-4.5,4.3-9,6.7-13.4c2.5-4.4,3.1-8.7,2-13.8c-1.2-5.7-2.8-11.7-0.8-17.6c1.8-5.2,3.9-10.4,6-15.5
			c1.4-3.4,3.4-6.3,6-9.1c2.7-2.9,4.7-6.4,5.8-10.4c1.8-6.5,3.6-12.9,5.4-19.4c1.2-4.5,3-8.8,6.5-12c5.2-4.8,10.6-9.4,15.9-14.1
			C763.6,828.2,767.2,825.5,769.5,821.5z M855,712.7c-1.6-1.1-3.5-0.6-5.3-0.7c-8.1-0.7-16,1.1-24.1,1.1c-32.4-0.1-64.8,0-97.2,0
			c-1.7,0-3.5,0-5.2,0.2c-1,0.1-1.7,0.6-1.9,1.8c-0.8,4.7,5.2,12.9,9.8,12.9c3.7,0,7.2,0.9,10.5,2.3c1.9,0.8,4,1.4,6.2,1.2
			c4.1-0.3,8,0.6,12,1.1c2.2,0.3,4.3,1,5.4,2.9c2.1,3.9,5.5,4,9.4,4.1c8.7,0.1,17.5-1.6,26.2,1c2.1,0.6,4.9,0.7,6.5-1.2
			c3.1-3.4,7-3.3,11.1-3.3c8,0,10.7-2.3,11.4-10.2c0.3-2.6,1.3-4.2,3.8-5.1c6.7-2.2,12.8-6.1,20.1-6.7
			C854.3,714,854.8,713.7,855,712.7z M1441.9,914c1.7-3.4,1.6-7.3,2.3-10.9c1.6-8.3,2.1-16.8,5.1-24.7c6.8-17.7,14.4-35,24.6-51.2
			c2.2-3.5,4.8-7.2,4.8-11.5c0-6.6,2.9-11.4,8-15c2.4-1.7,3.3-4,3.6-6.8c1.4-10.3,1.3-20.6,1-30.9c-0.1-5-1.1-10-1.8-15.4
			c-2.1,1.6-2.1,3.3-2.4,4.7c-2.5,11.4-4.9,22.8-7.3,34.3c-1.6,8-6.1,14.5-11.6,20.1c-5.1,5.1-11.2,9.2-16.7,13.9
			c-2.9,2.5-6,4.9-6.8,9c-1.8,9.8-5.1,19.2-6.6,29.1c-1.3,8.9-3,17.8-6.7,26c-1,2.3-1,4.3-0.1,6.6c2.9,7.1,5.7,14.2,8.5,21.3
			C1440.3,913.2,1440.6,913.9,1441.9,914z M449.6,430.7c-2.8,3.3-3.2,6.7-4.8,9.4c-2.3,3.8-3.4,8-4.2,12.4c-0.8,5-0.3,9.9-0.9,14.9
			c-0.9,6.8-1.6,13.7-1.8,20.5c-0.2,6.9-1.2,13.7-1.5,20.6c-0.7,13.3-1.9,26.6-3.3,39.9c-0.6,6.1-0.7,12.2-1.4,18.3
			c-0.9,8.2-0.6,8.8,7.8,8.4c4.4-0.2,5.2-0.7,5.2-5c0-8,1.3-16,1.5-24c0.2-6.5,0.3-13,1.2-19.4c1.2-8.4,0.9-16.8,1.7-25.1
			c0.7-7.2,1.1-14.5,1.7-21.7c0.6-6.8,0.8-13.7,1.6-20.5C453.4,450,453.2,440.6,449.6,430.7z M905.6,769.4c2.6,2.4,5.4,2.8,8.2,3.3
			c2.8,0.4,4.5,1.8,5.6,4.3c2.2,5.1,4.6,10.1,6.8,15.2c4.6,10.5,9.2,21,13.7,31.6c1.2,2.7,2.8,4.2,6,4.4c11.5,0.5,22.9,1.5,34.4,1.1
			c1.7-0.1,3.5,0,5.2,0.1c5.1,0.3,8.8,2.2,11.8,6.8c8.3,13.1,17.1,25.9,25.7,38.8c1,1.5,1.7,3.3,4.2,4.2c-0.6-4.1-3-6.7-4.6-9.6
			c-8-14.2-16.1-28.3-24.1-42.5c-1.4-2.4-3.1-3.7-5.9-3.6c-9.4,0.3-18.7-1.7-28.1-1.2c-4.2,0.2-8.4-0.1-12.6,0
			c-4.5,0.1-7.7-1.6-9.4-6c-1.8-4.6-3.9-9.2-5.9-13.7c-4.3-9.6-8.8-19.1-13-28.8c-1.4-3.2-3.6-4.6-7.1-4.4
			C912.9,769.6,909.3,769.4,905.6,769.4z M996,854.8c-1.4,2.4-0.4,3.7,0.2,5c8.8,17.9,17.7,35.7,26.5,53.6c1.8,3.6,3.7,7.1,6,10.4
			c10.2,14.6,20.3,29.3,30.5,43.9c6.6,9.4,13.2,18.8,19.9,28.2c0.8,1.1,1.3,2.7,4.2,2.7C1054,950.2,1025.6,902.5,996,854.8z
			 M694.2,548.6L694.2,548.6c0-4,0-8,0-12.1c0-5.5-1.4-7.5-6.6-9.2c-4.7-1.5-9.1-0.9-13.2,1.9c-1.7,1.1-2.9,2.5-2.9,4.6
			c0,10,0,19.9,0,29.9c0,2.1,0.9,3.2,3.1,3.2c5.4,0,10.7-0.1,16.1,0c2.9,0.1,3.5-1.5,3.5-4C694.2,558.2,694.2,553.4,694.2,548.6z
			 M614.7,552.4c0,4.8,0.1,9.6,0,14.3c-0.1,3.1,1.2,4,4.1,3.9c4.8-0.1,9.6-0.2,14.3,0c3.1,0.1,4-1.2,3.9-4.1c-0.1-8.8,0-17.6,0-26.4
			c0-5.4-1.2-7.1-6.2-8.9c-4.4-1.6-8.6-1-12.7,1.3c-2.4,1.3-3.6,3.2-3.5,6C614.9,543.2,614.7,547.8,614.7,552.4z M1379.8,589.9
			L1379.8,589.9c0.1,3.2,0.2,6.5,0.1,9.7c-0.1,2.6,1.2,3.4,3.6,3c5.3-0.8,10.6-1.7,15.8-2.4c2.6-0.4,3.6-1.8,3.6-4.3
			c-0.1-4.8-0.2-9.5-0.2-14.3c0-6.7-3.8-11-8.6-14.7c-2.5-1.9-5-1.7-7.3,0.4c-4,3.8-6.8,8.2-6.9,14
			C1379.7,584.1,1379.8,587,1379.8,589.9z M815.1,752.2c-3.2,0.5-6.3,0.7-9.3,1.4c-2.2,0.5-2.2,1.9-0.7,3.3c0.9,1,2,1.7,2.9,2.7
			c4.5,4.9,9.7,9.4,12.2,15.8c3.3,8.3,9.5,14.2,15.8,20c2.7,2.5,5.7,4.4,9.4,5.4c1.1,0.3,2.4,1,3.1-0.2c0.7-1.1-0.1-2.2-0.7-3.2
			c-0.4-0.7-0.9-1.3-1.2-1.9c-7.3-12.5-15.8-24.4-21.8-37.6C822.8,753.6,819,752.6,815.1,752.2z M431.8,887.1
			c-0.1-0.4-0.3-0.9-0.4-1.3c-4.2,0-8.3,0-12.5,0c-1.4,0-2.6,0.6-3.4,1.9c-1.7,3-3.7,5.9-4.2,9.4c-1.3,9.3-1.6,18.6-1.3,28
			c0.1,3.7,2.5,5.5,6.6,5.4c2.9-0.1,3.6-1,3.7-5.1c0-1,0-1.9,0-2.9c0-8,0.1-16.1,0-24.1c0-3,0.9-5.1,3.7-6.5
			C426.8,890.4,429.2,888.6,431.8,887.1z M516,504.1C516,504.1,516.1,504.1,516,504.1c0.1-4.6,0.1-9.1,0.1-13.7c0-1.1,0.3-2.5-1-3.1
			c-2.2-1-4.5-0.5-6.7,0c-2.1,0.4-1.6,2.3-1.8,3.7c-0.6,7.6-1.2,15.2-1.7,22.8c-0.5,7.5-0.2,7.6,7.4,7.1c3.1-0.2,3.8-1.5,3.7-4.3
			C515.9,512.5,516,508.3,516,504.1z M685.6,666.7c-2.5-3.2-5.6-4.4-9.5-3.8c-4.5,0.7-9.1,1.4-13.6,1.7c-3.9,0.3-4.4-0.3-4-4.1
			c0.6-5.5,1.4-11,2.1-16.5c0.2-1.8,1.2-4.5-1.3-4.9c-2.4-0.4-2.5,2.6-2.7,4.3c-0.6,5.7-1.4,11.4-2.3,17c-1.2,7.8,0,9.3,7.9,8.8
			C669.9,668.8,677.4,666,685.6,666.7z M673.6,598.1L673.6,598.1c0.1-0.8,0.1-1.5,0.1-2.3c0-8.4-0.4-8.7-8.6-8
			c-2.5,0.2-3.2,1.4-3.2,3.6c0.1,3,0,6.1,0,9.1c0.1,7.9-1.7,7.7,8.3,7.6c0.2,0,0.4,0,0.6,0c1.9,0,2.8-0.8,2.8-2.7
			C673.6,603,673.6,600.5,673.6,598.1z M701.3,596.4L701.3,596.4c0-2.7,0-5.3,0-8c0.1-2.5-1.2-3.4-3.5-3.3c-1,0-1.9,0.1-2.9,0
			c-2.9-0.2-4.2,0.9-4.1,3.9c0.2,5.3,0.1,10.7,0,16c0,2,0.7,3.3,2.9,3.3c1.5,0,3.1,0,4.6,0c1.9,0,2.8-0.8,2.8-2.7
			C701.3,602.5,701.3,599.4,701.3,596.4z M444.6,584.9c-0.1-0.2-0.1-0.5-0.2-0.7c-2.1,0-4.2,0-6.3,0c-29.8,0.1-59.7-0.7-89.5,1
			c-8.8,0.5-17.6,0.1-26.4,0.2c-1.8,0-3.6-0.4-5.3,0.7c1.1,0.4,2.2,0.3,3.4,0.4c16.1,0.5,32.2-1,48.2,1.1c1.5,0.2,3.1,0.2,4.6-0.1
			c5.9-1.3,11.8-1.1,17.7-0.9c17.6,0.5,35.2-1.9,52.8-1.3C443.9,585.3,444.2,585.1,444.6,584.9z M887.3,682.2c0.1,0,0.2,0,0.3,0
			c0,1.7-0.2,3.5,0,5.1c0.4,3.2,2,4,6.4,3.9c3.8-0.1,4.5-0.7,4.8-4.1c0.4-3.9-0.5-7.6-1.3-11.3c-0.5-2.5-2.3-3.9-4.9-3.9
			c-2.8,0-4.2,1.7-4.7,4.1C887.5,678,887.5,680.1,887.3,682.2z M931.1,684c0.1-1.7-0.1-4-0.8-6.2c-0.8-2.5-1.9-4.7-4.9-4.7
			c-2.5-0.1-5.1,2.5-5.5,5.6c-0.4,3-0.4,6.1,0.2,9.1c0.8,4,2.5,5,7.1,4.6c3.4-0.3,3.9-1,4-5.5C931.2,686.1,931.1,685.3,931.1,684z
			 M947.2,684.9c-0.1-2.2,0.3-4.9-0.7-7.5c-1.4-3.2-5.5-4.6-8-2.5c-1.9,1.5-2.6,3.8-2.2,6.2c0.4,2.8,0.7,5.7,0.7,8.5
			c0,3,1.7,3.9,4.4,4c4.7,0.2,5.7-0.6,5.9-5.4C947.3,687.2,947.2,686.2,947.2,684.9z M909.7,691.2c4.8-0.1,5.2-0.6,4.7-5.4
			c-0.3-2.6-0.3-5.3-0.4-8c-0.2-3.5-1.8-5.4-4.4-5.8c-2.5-0.3-5.3,2-5.7,5.3c-0.3,2.6-0.2,5.3-0.2,8
			C903.7,690.6,904.5,691.3,909.7,691.2z M985.4,685.6C985.4,685.6,985.3,685.6,985.4,685.6c0,1.9-0.1,3.8,0,5.7
			c0.2,3.2,2.5,3.4,4.9,3.4c2.3,0,5,0.2,5.1-3.1c0.2-4,0.3-8-0.1-12c-0.2-2.9-2.4-4.4-5.1-4.4c-2.6,0.1-4.5,1.7-4.9,4.6
			C985.2,681.7,985.4,683.7,985.4,685.6z M1047.4,686.8L1047.4,686.8c-0.1-1.9,0.1-3.8-0.1-5.7c-0.4-3-2.1-4.6-4.8-4.7
			c-2.9-0.1-5,1.6-5.3,4.8c-0.3,3.4-0.3,6.8-0.1,10.3c0.2,3.6,0.9,4.2,4.6,4.3c4.6,0.2,5.5-0.7,5.7-5.5
			C1047.4,689.1,1047.4,688,1047.4,686.8z M1030.1,686.9c-0.1,0-0.1,0-0.2,0c0-2.1,0.2-4.2-0.1-6.3c-0.4-2.6-2-4.6-4.7-5
			c-2-0.3-4.6,2-5,4.6c-0.6,4-0.6,8,0,11.9c0.3,2,4.3,3.7,7.2,3.4c2.5-0.3,2.9-2.1,2.9-4.1C1030.1,689.9,1030.1,688.4,1030.1,686.9z
			 M1054.4,686.7C1054.4,686.7,1054.3,686.7,1054.4,686.7c0,1.9-0.2,3.8,0,5.7c0.3,2.8,1.6,3.5,5.4,3.4c2.5,0,4.6-0.5,4.7-3.6
			c0.1-3.2,0-6.5,0-9.7c0-1.4-0.5-2.6-1.4-3.6c-1.3-1.5-2.8-2.7-4.9-2.3c-2.3,0.5-3.6,2.2-3.8,4.4
			C1054.2,682.9,1054.4,684.8,1054.4,686.7z M1012.8,686c-0.1-2,0.4-4.3-0.5-6.5c-1-2.4-2.7-4.2-5.5-4.1c-2.4,0.1-4,2-4.2,5.3
			c-0.2,3.4-0.1,6.8,0,10.3c0,2.6,1.5,3.6,4,3.8c4.9,0.4,6.1-0.6,6.3-5.5C1012.8,688.2,1012.8,687.2,1012.8,686z M969.2,684.5
			L969.2,684.5c0.1,2.1-0.1,4.2,0.1,6.2c0.3,2.5,2.3,2.8,4.3,2.7c2,0,4.8,0.6,5.3-2c0.9-4.4,1.1-9.1-0.2-13.5
			c-0.8-2.6-3.7-4.2-5.8-3.6c-2.6,0.6-3.6,2.6-3.8,5.1C969.1,681.1,969.2,682.8,969.2,684.5z M953.1,684.5c-0.1,0-0.1,0-0.2,0
			c0.1,2.1,0,4.2,0.3,6.3c0.3,2.5,2.4,2.7,4.4,2.7s4.9,0.6,5.3-2.1c0.7-4.7,1.3-9.5-0.9-14.1c-1-2-2.6-3.4-5.1-3
			c-2.4,0.4-3.6,2.1-3.8,4.4C953,680.6,953.1,682.6,953.1,684.5z M882.8,682c0-2.7,0.2-5.4-1.1-7.9c-1.2-2.1-2.7-3.8-5.5-3.2
			c-2.4,0.5-3.5,2.3-3.6,4.6c-0.1,3.6-0.1,7.3,0,10.9c0,2.3,1.3,3.4,3.6,3.6c5.1,0.6,6.5-0.5,6.7-5.7
			C882.8,683.5,882.8,682.7,882.8,682z M1070.3,687.3c0.1,0,0.1,0,0.2,0c0,1.7-0.1,3.4,0,5.1c0.2,3.1,2.5,3.4,4.9,3.4
			c2.3,0,5,0.1,5.1-3.1c0.2-3.8,0.2-7.6-0.1-11.3c-0.2-2.6-3-5-5-4.7c-2.7,0.4-4.3,2.3-4.8,5
			C1070.3,683.5,1070.4,685.4,1070.3,687.3z M1365.4,644.2L1365.4,644.2c0-3,0-6.1,0-9.1c0-2-1-2.7-2.8-2.7c-1.7,0-3,0.4-3,2.5
			c0,6.3,0,12.6,0,18.8c0,1.8,0.9,2.8,2.8,2.8c1.8,0,2.9-0.7,3-2.6C1365.5,650.7,1365.4,647.5,1365.4,644.2z M513.4,545.3
			L513.4,545.3c0.1-1,0-1.9,0.1-2.9c0.3-2.7-0.7-4-3.6-3.6c-8.1,0.9-6.9-0.7-7.5,7.9c-0.5,7-0.2,7.1,6.7,6.5c3.9-0.3,4-0.4,4.2-4.5
			C513.5,547.6,513.4,546.4,513.4,545.3z M485.9,547.5c0.1-7.4-0.9-8.3-8.2-6.9c-1.6,0.3-2.4,1-2.5,2.6c-0.2,3.1-0.4,6.1-0.5,9.2
			c-0.1,1.6,0.5,2.5,2.2,2.7C483.9,555.9,485.8,554.4,485.9,547.5z M431.1,551.3c0.3-7.8-0.4-8.4-7.7-7.3c-1.7,0.3-2.9,0.8-2.9,2.7
			c-0.1,3.2-0.2,6.4-0.2,9.7c0,1.3,0.6,2,2,2.2c6.1,1,8.6-0.9,8.8-7C431.1,551.5,431.1,551.3,431.1,551.3z M1367.3,644.2
			L1367.3,644.2c0,3,0,6.1,0,9.1c0,1.6,0.2,3.1,2.4,3.1c2.1,0,2.4-1.4,2.4-3c0-6.1,0-12.1,0-18.2c0-1.8-0.5-2.9-2.6-2.8
			c-1.8,0.1-2.2,1.2-2.2,2.7C1367.3,638.2,1367.3,641.2,1367.3,644.2z M1378.7,644.8c0-3.2,0-6.4,0-9.7c0-1.2-0.3-2.3-1.8-2.4
			c-1.5-0.1-2,1-2,2.2c0,6.4,0,12.9,0,19.3c0,1.2,0.5,2.3,2,2.1c1.5-0.1,1.7-1.3,1.7-2.5C1378.8,650.8,1378.7,647.8,1378.7,644.8z
			 M1031.4,599.9c0-0.6,0-1,0-1.3c-0.2-3.6-0.5-3.8-3.9-4c-2.9-0.1-3.6,1.3-3.5,3.8c0,0.8,0,1.5,0,2.3c0.2,3.7,0.9,4.2,4.4,4
			C1032.1,604.4,1031.2,601.8,1031.4,599.9z M1032.4,645.1c0-4.4-0.3-4.8-3.7-4.8c-3.5,0-3.9,0.6-3.9,5.2c0.1,4.1,0.4,4.6,4,4.5
			C1032.2,649.9,1032.4,649.6,1032.4,645.1z M966.6,577.3c0,0.6,0,1,0,1.4c-0.2,2.6,0.8,3.8,3.5,3.8c2.5,0,4-0.8,3.8-3.6
			c-0.1-0.7,0-1.5,0-2.3c-0.1-3.7-0.8-4.1-4.4-4C965.8,572.8,966.9,575.5,966.6,577.3z M1391.8,635.8c-1.5,5.7-1.8,10.5,0.5,15.2
			C1393.8,646.1,1394.7,641.4,1391.8,635.8z M485.3,390.2c0-0.6,0-0.9,0-1.3c-0.1-1.4-0.1-3-1.8-3.1c-2.2-0.2-2.3,1.6-2.4,3.1
			c0,0.4-0.1,0.8,0,1.1c0.3,1.7-1,4.4,2.1,4.4C486.2,394.4,484.8,391.6,485.3,390.2z M479.1,565.7c2,0,3.6-1.6,3.5-3.7
			c-0.1-2.1-1.7-3.6-3.8-3.4c-2,0.2-3.1,1.3-3.2,3.4C475.5,564,477.1,565.7,479.1,565.7z M997.1,469.3c0.2,1.2-0.9,4,1.9,3.8
			c2.6-0.1,1.5-2.9,1.7-4.6c0.1-0.5,0-1.1-0.1-1.7c-0.2-1-0.7-1.8-1.9-1.7c-1.1,0.1-1.6,0.9-1.7,1.9
			C997.1,467.7,997.1,468.2,997.1,469.3z M341.6,563.8c-1.9,0-3.5,1.8-3.3,3.8c0.2,1.9,1.3,3.1,3.3,3.1s3.1-1.2,3.3-3.1
			C345.2,565.6,343.5,563.8,341.6,563.8z M423.8,560.4c-1.7,0.1-3,1.1-3.3,3c-0.3,2,1.1,3.9,3.1,3.9c2,0.1,3.2-1,3.5-2.9
			S425.9,560.6,423.8,560.4z M1037.4,872.2c0.1-1.7-1-3.2-2.5-3.4c-1.6-0.2-3.3,1.4-3.2,3.2c0.1,1.7,1,3,2.8,3
			C1036.4,875,1037.2,873.8,1037.4,872.2z M481.3,368.9c0.3,1.2-0.7,3.5,2,3.6c3,0.2,2.4-2.2,2.5-4c0-0.6,0-1.1,0-1.7
			c-0.2-1.6-0.7-3.2-2.6-3c-1.5,0.2-1.8,1.7-1.9,3.1C481.3,367.5,481.3,368.1,481.3,368.9z M966.1,811.1c-1.6-0.2-3,1.1-3.1,2.8
			s0.6,3,2.3,3.4c1.6,0.4,3.4-1.3,3.3-3.1C968.7,812.6,967.8,811.5,966.1,811.1z M887,724.8c-0.3-1.4-0.9-2.8-2.7-2.9
			c-1.8-0.1-2.8,1-2.9,2.7c-0.1,2,0.7,3.4,2.9,3.3C886.1,728,886.7,726.6,887,724.8z M958.9,654.3c-0.2-1.4-0.4-3.2-2.6-3.3
			c-2.2-0.1-2.9,1.5-3,3.3s0.6,3.5,2.6,3.6C958.2,658,958.8,656.4,958.9,654.3z M917.4,758.9c-0.2-1.6-1.1-2.9-2.8-2.8
			c-2,0.1-3,1.5-2.9,3.5c0.1,1.5,1,2.6,2.5,2.6C916.2,762.2,917.2,760.9,917.4,758.9z M938.4,789.1c1.8-0.2,2.7-1.3,2.7-3
			c0-2-1.1-3.2-3.2-3c-1.9,0.2-2.4,1.5-2.4,3.2C935.7,788,936.6,789.1,938.4,789.1z M573.5,568.9c0.4,1.2-0.8,3.5,1.3,3.6
			c2.2,0.1,1.3-2.1,1.5-3.4c0.1-0.5,0-1.1-0.1-1.7c-0.1-0.8-0.4-1.5-1.3-1.5c-0.8,0-1.3,0.5-1.4,1.3
			C573.5,567.8,573.5,568.3,573.5,568.9z M581,598.5c-0.2-1,0.3-2.8-1.6-2.8c-1.6,0-1.4,1.5-1.3,2.6c0.1,1.2-0.7,3,1.2,3.2
			C581.2,601.7,580.9,599.9,581,598.5z M1045.5,519.9c1.3,0,1.9-0.6,1.8-1.7c-0.1-1.4,0.7-3.3-1.5-3.7c-1.5-0.2-1.7,1.2-1.7,2.3
			C1044,518.1,1043.6,519.6,1045.5,519.9z M942.4,659.9c0-1.4-0.5-2.5-1.7-2.7c-1.7-0.2-2.3,1.2-2.2,2.6c0,1.1,0.6,2.3,2,2.3
			C941.8,662.1,942.3,661,942.4,659.9z M533.7,573.3c1-2.3,1.2-3.7-0.2-5.4C532.3,569.7,532.2,571.2,533.7,573.3z M1048.5,536.4
			c-0.3-0.9,0.2-2.5-1.4-2.5c-1.5,0.1-1.3,1.6-1.3,2.7c0,0.9-0.1,2.2,1.1,2.3C1048.8,539.2,1048.3,537.6,1048.5,536.4z M537.5,594.9
			c-1.3,1.3-1,2.7-1,4c0,0.8,0.2,1.6,1.1,1.7c1.4,0.1,1.4-1.1,1.4-2C538.9,597.4,539.5,595.9,537.5,594.9z M601.6,302.1
			c0.8-0.2,1.4-0.6,1.2-1.5c-0.2-0.8-0.9-1.2-1.7-0.9c-0.4,0.2-1,0.7-1,1.1C600.1,301.7,600.7,302,601.6,302.1z M1445.8,649.6
			c0-1-0.4-1.6-1.2-1.6c-0.4,0-1,0.6-1,1c-0.2,0.8,0.4,1.4,1.2,1.4C1445.1,650.4,1445.5,649.9,1445.8,649.6z M620.9,241.3
			c-0.2-0.2-0.5-0.7-0.7-0.7c-0.7,0-0.9,0.6-0.8,1.1c0.1,0.3,0.5,0.7,0.7,0.6C620.7,242.3,621,241.9,620.9,241.3z M609.5,269.6
			c0.2,0.6,0.6,0.9,1.2,0.7c0.2-0.1,0.6-0.5,0.6-0.8c0-0.5-0.2-1-0.9-1C609.8,268.7,609.5,269,609.5,269.6z M993.8,852.1
			c-0.1-0.3-0.3-0.6-0.4-0.9c-0.3,0.1-0.7,0.3-0.7,0.4c0,0.3,0.2,0.6,0.4,0.9C993.2,852.4,993.5,852.2,993.8,852.1z M1029.3,882.1
			c-0.1-0.1-0.2-0.3-0.3-0.3c-0.5,0-0.6,0.3-0.3,0.6c0.1,0.1,0.3,0.1,0.4,0.1C1029.2,882.4,1029.3,882.2,1029.3,882.1z"/>
		<path class="st2" d="M1105.7,547.8c0-1.1,0.1-2.4-0.7-3.3c-2.8-3.3-1.6-6.3,0.5-9.3c1.9-2.7,3-5.7,4-8.8c5.7-18,11.5-36,17.3-54
			c0.7-2.1,0.9-4.5,2.5-6.2c0.3,0.2,0.6,0.3,0.6,0.4c-0.2,8.5,4,15.1,8.7,21.8c8.2,11.5,16,23.3,23.9,35c3,4.4,3,4.4,8.3,3.1
			c1.9-0.5,3.7-1.3,5.5-1.4c5.4-0.5,8.2-3.1,8-8.7c1.7-0.1,2.9-0.9,3.5-2.5c1.1-3.1,1.9-6.2,2.1-9.5c0.4-6.5-1.6-12.9-1.2-19.5
			c0.4-6.2-1.5-12.1-2.4-18.2c-0.2-1.6-1.2-2.8-2.2-3.9c-3.2-3.4-3.1-3.4-0.5-7.5c0.3-0.5,0.7-0.9,1-1.4c1.2-2.4,0.8-4.9,0.6-7.3
			c-0.2-2.2-2-2.5-3.6-3.1c-2-0.8-1.5-2.4-1.2-3.9c2-8.4,4-16.8,6-25.1c0.4-1.8,1-3.3,2.8-4.1c5.6,8.8,9.7,18.3,14.8,27.3
			c1,1.8,1.4,4,3.4,5c5.3,0.7,8.7-1.6,10.6-6.6c1.2-3.2,3-6.2,4.6-9.2c1.9-3.5,2.4-3.6,5.4-0.8c5.5,5.4,10.8,10.8,16.3,16.2
			c1,1,1.8,2.6,3.9,2.3c2-10.7,1.3-21.6,2.6-32.3c0.1-0.6-0.1-1.2-0.2-1.7c-0.9-3.4-0.8-6.8-0.8-10.3c0-3.1,0.1-6.1-0.5-9.2
			c-0.9-5.3-0.4-5.6,5.2-6.1c7.8-0.7,15.1,1.6,22.5,3.5c1.6,16,3.3,32,4.8,48c0.2,2.4,1.1,4,3.4,4.6c2.5,0.7,4.7,2.4,7.5,2.4
			c0.7-1.7,0.7-3.6-0.3-4.5c-2.7-2.2-1.9-4.7-1.3-7.3c2.5-9.4,4.9-18.9,7.4-28.3c0.2-0.9,0.4-1.8,1.7-2.6c1.7,3.4,3.5,6.8,5.2,10.2
			c3.3,6.5,6.5,13,9.8,19.5c1,2.1,2.2,4.1,0,6.3c-1.4,1.4-0.8,3.3-0.7,4.9c0.4,9.4,0.7,18.8,1.3,28.1c0.2,2.7-0.3,4.9-1.6,7.1
			c-1.6,2.6-2.6,5.7-4.5,8c-3.6,4.4-4,9.1-3.6,14.5c1,13.4,1.7,26.7,2.5,40.1c-0.5,12.9,0.8,25.9,1.6,38.7c0.6,9.4-0.3,19,1.8,28.4
			c0.3,1.4-0.1,3-0.2,4.5c-3.1-0.6-2.8,1.5-3,3.4c-0.2,2.5,0.6,4,3.3,4c1.8,11.4,0.4,22.9,2,34.4c0.6,3.9,0.2,8,0.2,12.1
			c0,2.9-1.5,4-4.3,4.2c-6.4,0.4-12.6-0.3-18.6-2.9c-2.8-1.2-5.7-2.2-8.6-3.2c-7.5-2.6-13.9,0.6-20,4.5c-0.7,0.5-1.5,1.4-1.7,2.3
			c-1.2,4.6-4.8,6.7-8.7,8.4c-2.8,1.3-5.6,2.5-8.2,4.1c-5.1,3.1-10.5,3.2-16.1,2.5c-1.5-0.2-3-0.8-4.5-0.7
			c-8.3,0.4-16.4-1.1-24.4-3.2c-3.1-0.8-6.5-0.4-9.7-0.4c-3,0-5.9-0.3-8.2-2.2c-5.7-4.8-11.9-3.5-17.9-1.5
			c-7.7,2.6-15.5,4.2-23.7,3.7c-6.6-0.4-13,0.9-19.3,2.4c-1.3,0.3-2.6,0.7-3.9,0.9c-5.9,1.1-7,0.4-6.9-5.5
			c0.5-18.2-1.1-36.4-1.4-54.5c-0.3-14.5-0.3-29.1-1.3-43.6C1106.2,569.6,1106.6,558.7,1105.7,547.8z M1140.5,533.1
			c0-0.6-0.6-1.4-1.4-2c-1.5-0.9-2.8-1.8-3.5-3.6c-0.6-1.5-2.4-2.9-3.6-1.9c-2.7,2.2-5.1,4.8-7.3,7.5c-0.8,1.1,0.3,2.5,1.5,3.4
			c0.2,0.1,0.3,0.2,0.5,0.3c6.3,5.1,6.3,5.1,12.3-0.4C1139.9,535.6,1140.6,534.8,1140.5,533.1z M1166.5,583.4L1166.5,583.4
			c0-2.1,0.1-4.2,0-6.3c0-2.3-0.1-4.6-0.2-6.8c-0.1-1-0.7-1.8-1.8-1.8c-1.1,0-1.8,0.5-2,1.6c-0.1,0.6-0.2,1.1-0.2,1.7
			c0,7.6,0,15.2,0,22.8c0,1.5-0.2,3.3,2.2,3.2c1.9-0.1,1.8-1.7,1.9-3C1166.5,591,1166.5,587.2,1166.5,583.4z M1180.9,579.4
			c0,4,0,8,0,12c0,1.6,0.1,3.2,2.4,3.1c1.8-0.1,1.9-1.6,1.9-2.9c0-7.8,0-15.6,0-23.4c0-1.5-0.3-2.7-2.1-2.8
			c-1.8-0.1-2.2,1.1-2.2,2.6C1180.9,571.8,1180.9,575.6,1180.9,579.4z M1168.7,635.4c0-4.4,0-8.8,0-13.1c0-1.3-0.1-2.7-0.3-4
			c-0.2-1.1-1-1.5-2.1-1.4c-0.9,0.1-1.4,0.6-1.5,1.4c-0.1,0.9-0.2,1.9-0.2,2.8c0,9.7,0,19.4,0,29.1c0,0.9,0.1,1.9,0.2,2.8
			c0.1,0.8,0.6,1.3,1.5,1.4c1.1,0.1,1.9-0.3,2.1-1.4c0.2-1.3,0.3-2.6,0.3-4C1168.7,644.6,1168.7,640,1168.7,635.4z M1186.9,631.5
			c0-1.5,0-3.1,0-4.6c0-3.4,0-6.9,0-10.3c0-1.5,0.2-3.4-2.1-3.3c-2.2,0.1-1.8,2.1-1.9,3.5c0,0.4,0,0.8,0,1.1c0,9.2,0,18.3,0,27.5
			c0,1,0.1,1.9,0.2,2.9c0.1,1.1,0.8,1.7,1.9,1.6c1.1,0,1.7-0.8,1.8-1.8c0.1-1.1,0.2-2.3,0.2-3.4
			C1186.9,640.3,1186.9,635.9,1186.9,631.5z M1219.4,547.4L1219.4,547.4c0-1.1,0-2.3,0-3.4c-0.1-2.4-0.5-4.7-3.5-5
			c-2.2-0.2-3.5,1.5-3.7,4.8c-0.1,2.1,0,4.2,0,6.3c-0.1,2.5,0.7,4,3.5,4c2.7,0,3.9-1.1,3.7-3.8
			C1219.4,549.3,1219.4,548.4,1219.4,547.4z M1261.1,547.2L1261.1,547.2c-0.1-1.7,0.1-3.5-0.1-5.1c-0.3-1.9-1.5-3.1-3.5-3.1
			c-2,0.1-3.2,1.3-3.3,3.3c-0.2,2.7-0.1,5.3-0.2,8c-0.1,2.6,0.9,3.8,3.7,3.8c2.9,0,3.7-1.4,3.5-4
			C1261.1,549.1,1261.1,548.2,1261.1,547.2z M1224,597.2c-0.1-0.5,0-2-0.4-3.4c-0.6-1.9-2.2-2.6-4-1.6c-2,1.1-2.6,9.8-0.8,11
			c0.4,0.3,1.1,0.4,1.6,0.4C1223.4,604,1224,603.1,1224,597.2z M1248.7,598.6c0.1,0,0.1,0,0.2,0c-0.1-1.1,0-2.3-0.2-3.4
			c-0.2-1.5-0.9-2.6-2.5-2.7c-1.8-0.1-3,0.9-3.1,2.6c-0.2,2.3-0.2,4.6-0.1,6.9c0.1,1.7,1.4,2.1,2.8,2.1s2.7-0.3,2.9-2
			C1248.8,600.9,1248.7,599.7,1248.7,598.6z M1272.7,414.1L1272.7,414.1c0.1,0.7,0,1.5,0.1,2.2c0.1,1,0.5,1.9,1.7,1.8
			c1.1,0,1.6-0.9,1.6-1.9c0.1-1.7,0-3.4-0.1-5.1c0-0.8-0.5-1.4-1.4-1.5c-1.2-0.2-1.7,0.6-1.8,1.6
			C1272.7,412.2,1272.7,413.2,1272.7,414.1z M1230.3,476.9c2.7,2,5.1,1.8,7.6,0.8c0.2-0.1,0.4-0.8,0.2-1c-1.8-2.2-4.1-1.1-6.2-1
			C1231.6,475.7,1231.3,476.1,1230.3,476.9z M1234.2,480.7c-1.2,0.2-3.4-0.4-3.4,1.6c-0.1,2.5,2.3,1.7,3.8,1.9c0.2,0,0.4,0,0.6,0
			c1.2-0.2,3,0.3,3-1.6c0.1-2.3-1.9-1.8-3.3-1.9C1234.7,480.7,1234.5,480.7,1234.2,480.7z M1204.4,461.9c-0.7,2.5-1.4,4.1,0.3,5.8
			C1206.3,465.9,1206.2,464.4,1204.4,461.9z M1140.3,648.5c-0.8,0.3-1,1-0.8,1.8c0.1,0.6,0.6,1,1.2,0.8c0.8-0.3,1-1,0.8-1.8
			C1141.4,648.8,1141,648.4,1140.3,648.5z M1209.6,483.2c-0.1-0.7,0.1-1.9-1.3-1.8c-0.9,0-1,0.9-1,1.6c0,0.9-0.1,2,1.3,1.9
			C1209.4,484.9,1209.5,484.1,1209.6,483.2z M1296,486.2c-0.1-0.3-0.1-0.8-0.3-1c-0.3-0.4-0.7-0.2-0.8,0.3c-0.1,0.5-0.2,1.1,0.4,1.4
			C1295.4,487,1295.8,486.5,1296,486.2z M1258.5,460.2c0.1-0.7-0.3-1-0.8-1.2c-0.8-0.3-1.4,0.1-1.6,0.9c-0.2,0.7,0.3,1,0.8,1.2
			C1257.7,461.3,1258.2,461,1258.5,460.2z M1256.3,446.5c-0.2-0.6-0.6-1-1.2-0.9c-0.3,0.1-0.5,0.6-0.6,0.9c-0.1,0.6,0.2,1.1,0.9,1.1
			C1256.1,447.6,1256.3,447.1,1256.3,446.5z M1300,506.2c-0.1-0.6-0.5-1-1.1-0.8c-0.2,0.1-0.5,0.5-0.5,0.8c-0.1,0.6,0.2,1.1,0.8,1
			C1299.9,507.3,1300.1,506.8,1300,506.2z"/>
		<path class="st2" d="M139.8,932.8c4.5-10.1,8.9-20.3,13.5-30.3c1.2-2.6,3-4.8,4.7-7.2c5-7,10.1-13.9,15-21
			c1.7-2.4,3.5-3.7,6.5-3.8c4.2-0.2,8.4-0.6,12.5-1.5c3-0.6,5.7,0.2,8.4,0.9c9.1,2.2,18,4.9,27.4,6.1c2.8,0.4,5.7,0.9,8.5,0.3
			c4.7,2.4,9.8,1.3,14.6,1c4.9-0.3,9.8-1.6,14.8-1.8c4.2-0.2,7.7-1.7,11.2-3.7c10.9-6.1,20.8-13.7,30.7-21.2c2.6-2,5.2-3.8,8.6-4.5
			c6.9-1.3,12.6-4.4,18.2-9c10.6-8.8,22.1-16.5,34.1-23.3c3.2-1.8,6.2-3.8,9.2-5.9c2-1.4,4.1-3.1,4.6-5.6c0.6-2.6,2.3-4.3,4-6.2
			c11.6-13.2,24.6-25.2,35.7-38.9c6.7-8.2,15.3-14.4,23.6-21c4.5-3.6,9-7.1,13.5-10.7c2.1-1.7,3.7-3.9,5.1-6.2
			c6.3-9.7,14.3-17.9,23.7-24.6c0.5-0.3,1-0.6,2,0c-1.5,4-4.6,7.1-7.2,10.4c-5.3,6.8-10.7,13.5-16.4,19.9c-3,3.4-6.7,6.3-10.3,9.1
			c-12.8,9.9-23.8,21.5-34,34c-6.4,7.9-13.5,15.1-20.7,22.3c-5.1,5.1-10.3,10.2-15.1,15.7c-3.4,3.9-5,8-5.6,12.8
			c-0.8,7.7-0.4,15.3,1.1,22.9c0.5,2.6,2.2,4.3,4.3,5.9c4.7,3.6,5.2,5.9,3.2,11.4c-1.5,4.2-4.1,7.8-6.7,11.4
			c-1.9,2.7-2.9,5.3-0.9,8.4c0.7,1,0.6,2.6,0.9,3.9c0.9,4.5,2.2,8.9,4.7,12.9c3.8,5.9,5.8,12.5,7.4,19.2c0.6,2.4,0.5,4.7-1,6.6
			c-4.4,5.8-8,12.1-13.2,17.4c-4.8,4.8-10.3,8.6-16.3,11.6c-1.9,1-3.9,1.7-5.6,2.9c-5.5,3.7-11.4,4.6-17.9,5
			c-6.5,0.3-13,0.9-19.5,0.9c-3.8,0-7.6-0.2-11.4-0.8c-7.1-1-13.6,1.9-20,4.1c-13.4,4.6-26.8,9.3-39.9,14.7
			c-5.4,2.2-11.1,3.3-16.8,3.5c-7.3,0.3-14.5,1.5-21.7,1.5c-11.3-0.1-21.8,2.7-31.5,8.8s-19.9,11.5-29.8,17.3
			c-4.8,2.8-10.3,2.8-15.5,3.7c-26.5,4.1-52.9,8.3-79.2,13.8c-9,1.9-17.7,4.8-25,10.9c-1.6,1.3-3.3,2.6-5.5,3l0,0
			c2-5.4,5.7-9.9,8.3-15.1c0.9-1.9,3-2.3,4.8-2.9c15.9-4.5,31.8-8.3,48.3-9.9c13.3-1.3,26.5-3.5,39.8-5.2c6.6-0.9,13.3-2,19.9-2.5
			c3.4-0.3,6.3-1.3,9-3.3c14.9-11.1,29.9-22.1,44.8-33.1c1.2-0.9,2.5-1.9,3.9-2.5c11.5-4.7,22.6-10.3,34.7-13.6
			c10.4-2.8,20.5-6.4,28.7-13.9c4.2-3.9,9.5-5.6,15.2-6c14.4-1.1,28.4-4.2,42.4-7.3c7.2-1.6,11.6-4,19.4-11.2
			c-2.3-2.6-5.7-3.1-8.6-3.7c-4.9-0.9-8.2-3.7-9.5-8.1c-3-10.1-10.8-11.9-19.5-12.4c-3.1-0.2-6.1-0.3-9.1-0.9
			c-2.3-0.5-4.5-0.3-6.8,0.5c-6.8,2.5-13.7,4.9-20.6,7.3c-2.1,0.7-3.2,2-3.2,4.2c0,5.4-0.6,10.7,0.4,16.1c0.5,2.5,0.7,4.9,0.6,7.4
			c-0.1,1.5,0.3,3.3-1.7,3.8c-1.6,0.4-2.2-1.1-3.2-2c-6-6.3-10.7-13.5-14.9-21c-2.5-4.3-6.5-6.4-10.3-8.8c-1.6-1-3.3-0.5-5-0.1
			c-5.5,1.1-10.6,0.7-15-3.3c-3.2-2.9-7.1-4.4-11.4-5c-3.6-0.5-7.1-1.7-10.7-2.3c-6.5-1-12-0.3-16.7,5.8c-6,7.6-8.3,16.7-12,25.2
			c-0.8,1.9,0,4.1,0.4,6.2c1.3,6.9,0.3,13.3-4.3,18.9c-1,1.2-1.8,2.6-3.5,2.9c-4.9,0.7-9.9,0.6-14.9,0.1c-1.6-0.2-1.9-1.6-2.3-2.9
			C141.2,938.3,141.4,935.3,139.8,932.8z"/>
		<path class="st2" d="M701.5,782.7c-2.7,4.5-6.8,6.4-10,9.2c-8.2,7.1-16.7,14-25.1,21c-4.1,3.5-7.1,8-10.6,12.1
			c-2.5,2.8-3.3,6.4-3,10.2c0.2,3-0.5,5.7-2.4,8c-4.6,5.7-7.8,12.3-11.1,18.8c-0.8,1.5-1.6,3-2.5,4.5c-1.2,2-2.7,2.8-5.2,2.4
			c-5.6-1-11.3-1.7-17-2.6c-5.7-0.8-9.2,0.9-10.6,6.2c-3.3,12.5-10.3,23-17.9,33.2c-6.8,9.1-12.1,19.1-17.5,29
			c-0.1,0.2-0.2,0.3-0.3,0.5c-3.4,7.5-1.5,11.1,6.7,11.3c8.1,0.2,15.9,2.1,23.9,2.8c6.2,0.5,11.9,4.3,16.4,8.8
			c3.3,3.4,3.8,8.3,4,12.9c0.1,2.1-1.7,3.3-3.3,4.4c-4.8,3.5-9.5,7.1-14.3,10.6c-3.3,2.5-6.1,5.2-7.1,9.4c-0.6,2.3-1.8,4.3-3.9,5.5
			c-4.4,2.7-8.8,5.3-13.3,7.9c-1.7,1-3.7,0.9-5.6,0.5c-2.1-0.5-4.1-0.8-6.2-1.3c-5.4-1.2-10.8-1.7-16.5-1
			c-6.6,0.9-13.4,0.3-20.1,0.3c-10.2,0-20.3,0-30.5,0c-2.1,0-4.2-0.2-6.3-0.5c-2.9-0.5-4.5-2-5.2-5.2c-1.7-6.9-2.4-13.4,1.1-20
			c1.7-3.1,2.3-6.9,3.3-10.4c1-3.7,2.9-6.7,6.1-8.7c5.5-3.4,9.5-8.2,13.2-13.4c4.5-6.4,10-12.1,13.1-19.5c0.8-2,2.6-3.2,4.4-4.4
			c3-2,5.9-4.2,8.9-6.3c8.4-5.6,13.3-14.2,19-22c5.3-7.3,10.7-14.4,14-23c1.9-5,5.5-9.1,10.1-12.3c4.2-2.9,8.1-6.4,12.2-9.6
			c2.7-2.1,4.6-4.8,4.7-8.2c0.2-7.8,4.8-13.3,9.6-18.4c9.2-9.7,16.6-20.6,24.1-31.4c3.6-5.2,7.7-8,14.3-7.6c9.8,0.6,19.5-1,29.2-2
			C683,783.8,691.9,783.3,701.5,782.7z"/>
		<path class="st2" d="M409.1,1035.7c2.6-6.1,5.1-12.2,7.7-18.4c3-7.2,6.1-14.5,9.2-21.7c0.8-1.8,1.5-3.6,2.6-5.1
			c11.4-16.8,21.8-34.3,33.6-50.8c2-2.8,4.3-4.8,7.4-6.1c3.3-1.5,6.5-3.4,9.8-4.8c3.4-1.4,5.8-3.7,7.4-6.9
			c7.6-14.6,16.8-28.4,23.5-43.5c2.9-6.5,6.8-11.5,12.9-14.8c8.7-4.6,12.8-12.6,16.6-21.1c6.4-14.3,12.5-28.8,19.7-42.8
			c0.3-0.5,0.4-1.1,0.8-1.5c7.8-9.7,8.7-21.8,12-33.1c1.8-6.1,3.4-12.1,6.4-17.7c9.3-17.7,17.8-35.8,25.5-54.2
			c1.1-2.5,2-5.1,2.8-7.7c1.4-4.7,3.3-9,6.7-12.7c3.3-3.7,6.7-7.3,9.3-11.7c2.1-3.6,6.3-4.8,10.2-6c2.5-0.8,3.1,0.4,2.7,2.7
			c-1,6.6-1.9,13.3-3,19.9c-1.5,9.3-1.3,18.5,1.4,27.6c1,3.4,1.3,7,0.6,10.4c-1.5,7.9-2.8,15.8-4.1,23.8c-0.7,4.3-2.4,7.7-5.5,11
			c-6.9,7.4-13.3,15.3-19.7,23.1c-1.2,1.4-2,3.3-2.9,5c-6.1,12.2-12.2,24.3-18.3,36.5c-3.3,6.6-7.2,12.6-12.7,17.6
			c-5,4.5-9.5,9.5-14.3,14.1c-2.7,2.6-4.4,5.5-5.1,9.4c-2,11.1-4.5,22.1-6.8,33.2c-0.6,2.9-1.7,5.3-3.7,7.6
			c-8.3,9.8-16.4,19.7-24.6,29.5c-5.3,6.3-10.5,12.5-16.3,18.3c-1.4,1.4-4,3.2-5.8,4c-2.8,1.3-5.5,2.7-8.4,3.8
			c-8,2.8-13.5,7.9-17.5,15.5c-6.7,12.7-14.3,24.9-21.3,37.4c-1.9,3.4-4.3,6.4-7.4,8.7c-9.5,7.2-19.1,14.1-28.6,21.2
			c-0.6,0.4-1.3,7.7-2,8C409.7,1043.1,409.4,1035.9,409.1,1035.7z"/>
		<path class="st3" d="M673.2,90.7c4.6,15.2,9.3,30.4,13.9,45.6c5.1,17,10.2,34.1,15.2,51.2c0.5,1.8,0.9,3.7,2.2,5.3
			c0.5,0.6,1.1,1.5,0.9,2c-1.6,4.3,1.6,7.7,2.1,11.5c0.5,3.2,4.4,4.8,4,7.7c-0.5,3.3,0.4,6.1,1.3,8.9c0.8,2.6,0.4,5.9,3.6,7.5
			c0.4,0.2,0.7,1.1,0.5,1.5c-2,5.6,2.1,9.8,3,14.8c0.3,1.5,1.2,2.8,2.7,3.5c1,0.5,1.1,1.3,0.8,2.4c-1.8,5.9,1.1,10.7,3.9,15.4
			c0.6,1,1.5,1.8,0.8,3c-1.4,2.3-0.5,4.5,0.5,6.6c3.7,8.2,4.4,17.3,8.1,25.4c2,4.4,1.6,9.2,3.4,13.6c1.8,4.4,3.7,8.8,4.5,13.6
			c-1.6,2.1-0.2,4.1,0.4,6c1.1,3.6,2.5,7.1,2.7,10.8c-1.3,0.8-2.1,0.2-2.9-0.3c-2.1-1.3-4.4-2.4-6.4-3.9c-15.1-11-33-15-50.4-20
			c-5-1.4-10.5-1.6-15.9-1.9c-6.7-0.3-13.3-1-20-1.9c-4.8-0.7-4.7-0.9-4.3-5.9c1.3-15.6,3-31.2,4.6-46.8c1.5-13.7,2.4-27.4,3.7-41.1
			c1.3-13.3,3-26.6,4.3-39.9c1.3-13.3,2.4-26.6,3.7-39.9c0.9-9.5,2.1-19,3.1-28.5c0.6-5.7,1.1-11.4,1.4-17.1
			c0.1-2.7,0.7-5.3,1.1-7.9C670.3,89.1,671.8,90.1,673.2,90.7z M665.8,306.1c0.9-0.1,1.4-0.7,1.2-1.5c-0.1-0.4-0.6-1-1-1.1
			c-0.8-0.2-1.4,0.3-1.5,1.1C664.5,305.5,665,305.9,665.8,306.1z M667.3,214.6c0.6-0.2,1-0.6,1-1.2c0-0.6-0.4-1.2-1-1.2
			s-0.9,0.6-0.9,1.2C666.4,214,666.6,214.5,667.3,214.6z M665.7,273.5c1,0,1.3-0.5,1.4-1.1c0.1-0.8-0.3-1.5-1.2-1.5
			c-0.6,0-1,0.5-1.1,1.1C664.6,272.9,665.1,273.4,665.7,273.5z M667.1,238.1c-0.6,0.2-0.9,0.7-0.9,1.3s0.3,1.3,0.9,1.3
			c0.6,0,0.8-0.7,0.9-1.3C668,238.7,667.8,238.2,667.1,238.1z M667.5,196.4c-0.6,0.3-0.8,0.9-0.4,1.4c0.2,0.2,0.7,0.5,1,0.4
			c0.6-0.2,0.8-0.9,0.4-1.4C668.4,196.5,667.9,196.5,667.5,196.4z"/>
		<path class="st3" d="M764.5,448.5c3.6,9.9,5.7,20.1,8.5,30.2c0.3,1.2,0.5,2.3-0.2,3.3c-3.2,5.4-1.2,11.2-1.5,16.8
			c-0.1,2.4,2,2.4,3.6,2.7c14,2.8,28.1,5.7,42.1,8.5c3.4,0.7,6.8,1.1,10.2,0.2c1.7,1.5,3.8,1.5,5.8,1.5c4.7,0,9.3,0,14,0
			c-0.4,2.2-1.7,3.4-3.9,3.4c-3.3,0-4.7,2.1-5.8,4.7c-0.7,1.6-1.5,3.1-2.3,4.6c-2.5,4.5-4.4,5.3-9.4,3.7c-1.3-0.4-2.5-0.9-3.8-1.4
			c-1.5-0.7-3-0.9-4.3,0.3c-2.3,2.1-4.8,1.8-7.5,1c-6.9-1.8-13.8-2.6-20.9-1.4c-10,1.8-19.1,5.5-26.5,12.7
			c-10.2,9.8-14.6,22-14.5,36.2c0.2,26,20,46.2,46.1,46.6c0,10,0,20,0,30c-5.9-4.2-10.1-9.9-13.6-16c-1.6-2.8-3.3-5-7-4.9
			c-2,0-3.7-0.9-4.8-2.7c3.8-0.9,2-3.9,2.3-6.1c0.1-0.8-0.5-1.5-1.4-1.4c-0.8,0-1.5,0.4-1.6,1.3c-0.1,2.1-0.4,4.2,0.6,6.2
			c-5.8,2.6-10.4,1-14.9-3.3c-4.2-4.1-9.1-7.4-13.7-11.1c1.3,0,2.7,0,4-0.1c4-0.2,4.1-0.3,4.2-4.3c0.1-3.4-0.1-6.9,0-10.3
			c0.1-2.9-1.4-3.6-3.9-3.5c-2.4,0.1-4.8-0.1-4.6,3.4c0.2,4.9-0.5,9.9,0.4,14.8c-3.6-1.1-7.2,0-10.8,0.4c-4.8,0.6-5.3,0.3-5.4-4.6
			c-0.1-6.7,0-13.4,0-20.1c0-22.6,0-45.2,0-67.8c0-1.5,0.1-3.1,0-4.6c-0.3-3.6-0.9-4.5-4.5-4.4c-11.1,0.2-22.2-0.6-33.3,0.8
			c-7,0.9-14.2,0-21.2,0.4c-14.3,0.8-28.7,1-43,1.3c-5.7,0.1-11.4,1.1-17.2,0.8c-3.2-0.1-3.8-1.3-2.1-4c4.9-8,9.9-16,14.8-24
			c1.4-2.2,3.4-3.1,5.9-2.9c10.7,0.6,21.4-0.8,32.1-1.4c10.9-0.6,21.8-0.4,32.6-1.9c2.1-0.3,4.2-0.4,6.3-0.2
			c8.3,0.6,16.4-1.3,24.6-1.2c0.6,0,1.4,0.1,1.7-0.2c3-4.3,6.7-1.7,10.2-1c0.5,0.1,1.1,0,1.7,0c2.7,0.3,4.4-0.5,4.4-3.6
			c0-0.9,0.2-1.9,0.5-2.8c1.2-3.8,3.2-5.7,7-2.7c1.9,1.4,3.9,1.3,6,1c0.1,2.3,0.1,4.6,0.3,6.9c0.1,1,0.7,1.8,1.7,2.1
			c1.2,0.3,2.4,0,3-1.1c0.6-1.2,1-2.5,1.3-3.8c1.8-6.9,3.5-13.7,5.2-20.6C762.5,452.6,762.9,450.3,764.5,448.5z"/>
		<path class="st2" d="M1631.7,720c0.1,4.4-2,8.2-3,12.2c-2.6,9.8-5.7,19.5-9.8,28.8c-2.2,5.1-3.8,10.4-5.8,15.6
			c-3.4,8.7-4.7,17.7-5.5,26.9c-0.3,3.6-0.9,7.3-2.1,10.7c-5.4,15.4-9.8,31.1-13.6,46.9c-1.4,5.7-3.9,10.8-8.4,14.7
			c-2.1,1.8-3.4,4.1-4.2,6.7c-3.4,10.4-7.1,20.7-9.7,31.3c-2.4,9.7-7.5,18.1-12.6,26.3c-5.7,9.3-11.9,18.3-18,27.4
			c-1.5,2.3-2.1,4.9-3.1,7.4c-4.9,11.9-9.2,24-11.2,36.7c-0.7,4.6-3.5,8.2-6.7,11.2c-6.9,6.5-12.4,14.1-17.8,21.8
			c-2.7,3.9-6.1,6.8-10.4,8.7c-3.7,1.6-7.2,3.5-11,5c-2.5,1-3.6,0-2.7-2.3c3.7-10.2,5.8-21.1,11.5-30.6c3.2-5.4,5.7-11.3,8.7-16.9
			c14.4-27.3,26.8-55.5,38.2-84.2c8.6-21.7,17.5-43.4,26.2-65.1c1.4-3.4,3.4-6.3,5.9-9.1c5.1-5.7,10.2-11.4,14.9-17.5
			c3.6-4.6,5.1-10.3,7.3-15.6c5.9-14.4,12-28.6,19-42.5c8.1-16.1,14.6-32.9,21.3-49.6C1629.8,723.2,1630.3,721.3,1631.7,720
			L1631.7,720z"/>
		<path class="st3" d="M558.6,428c3,8.1,3.9,16.2,3,24.5c-0.9,8.6-1.5,17.1-2.1,25.7c-0.5,7.2-1.2,14.5-1.9,21.7
			c-0.5,5-0.5,9.9,0,15.5c6.6-4.9,8.3,2.7,12.9,4.5c0.6-2.7,1.5-5.3,1.5-7.8c0-6.7,1.2-13.3,1.5-20c0.3-7.2,1.3-14.5,1.9-21.7
			c0.6-6.9,1.2-13.7,1.4-20.6c0.1-4.1,0.8-7.9,2.8-11.5c2.1-3.8,3.9-7.8,6.5-11.7c1.8,7.6,4.1,14.9,3.2,22.8
			c-0.8,7.2-1.4,14.4-2,21.7c-0.7,8.4-1.5,16.7-2.1,25.1c-0.6,8-1,16-1.4,24c-0.2,3.1,0.2,6.1-0.7,9.1c-1,3.7,0.1,6.5,2.7,9.3
			c6.1,6.6,12,13.4,17.9,20.2c0.6,0.7,1.3,1.4,0.7,2.9c-29.7-3.9-59.6-4.5-89.4-0.2c-0.2-0.4-0.7-0.7-0.6-1
			c2-14.6,2.7-29.3,3.8-43.9c0.9-11.6,2.2-23.2,3.2-34.8c0.6-6.9,0.9-13.7,1.3-20.6c0.4-5.5,0.4-11.1,1.5-16.5c1-5.5,4.4-10.1,7-15
			c0.4-0.7,1.1-1.2,1.9-0.8c0.4,0.2,0.9,0.8,0.9,1.3c0.7,7,3.4,13.7,1.8,21c-1.1,5-1.1,10.3-1.3,15.4c-0.6,13.2-2.2,26.3-2.7,39.5
			c-0.5,10.3-1.4,20.6-2.1,30.9c-0.1,1.8-0.3,3.8,0.8,6.2c4.7-3.5,8.4-7.6,11.9-11.7c0.7-0.8,0.9-2.1,1-3.2
			c0.8-11.4,1.5-22.9,2.5-34.3c0.9-11.4,2.1-22.8,3.1-34.2c0.2-2.1,0.4-4.2,0.3-6.3C548.7,443.6,553.7,435.9,558.6,428z"/>
		<path class="st3" d="M908,565.8c0.7,1.8,1.3,3.6,2,5.4c0.5,1.3,0.6,2.7-0.4,3.8c-3.6,3.9-3.6,8.7-3.5,13.5
			c0,7.8,0.1,15.7,0.4,23.5c0.1,2.4-0.2,4.7-2,6.3c-2,1.9-2.5,4.1-2.4,6.7c0.2,6.3,0.3,12.6,0.4,18.9c-0.4,3.4-0.9,6.8-1.2,10.2
			c-0.4,4.4-1.2,5.4-5.8,4.8c-4.7-0.6-9.5-0.7-14.2-1.3c-8.1-0.9-16.3-1.5-24.5-2.1c-6.5-0.5-12.9-1.1-19.3-1.8
			c-1.9-0.2-3.8-0.3-5.6,0.3c-4.7,1.6-9.7,2.2-14.5,3.2c-6.8,1.4-12.9,0.3-18.5-3.6c7.4-4.4,14.3-9.1,19.4-16.5
			c7.8-11.5,8.2-11.2,7.9-25.1c4.3-1.4,7.2-4.7,9-8.4c4.1-8.6,10.5-11.3,19.7-10.3c6.7,0.7,11.6-3.1,14.3-9.4
			c1.2-2.8,2.2-5.7,3.4-8.5c1.9-4.7,2.9-5.3,7.8-4.4c4.2,0.8,8.3,0.5,12.5-0.1C898.3,570.1,903.1,568,908,565.8z M894,625.6
			c0,4.1,0.6,4.7,3.9,4.6c3.1-0.1,3.6-0.9,3.6-5c-0.1-3.6-0.6-4.2-3.7-4.3C894.5,620.8,894,621.4,894,625.6z M890.8,579.5
			c-1.3-0.1-2.1,0.4-2.1,1.5c0,1.4-0.7,3.2,1.4,3.7c1.5,0.3,1.9-0.9,1.9-2.1C892,581.4,892.4,579.9,890.8,579.5z M863.4,638.3
			c1.4,0,2-0.8,2.1-2.1s-0.5-2.3-1.8-2.4c-1.4-0.1-2.1,0.8-2.2,2.1C861.4,637.2,862.1,638,863.4,638.3z"/>
		<path class="st2" d="M769.5,821.5c-2.3,4-5.9,6.7-9.3,9.7c-5.3,4.7-10.7,9.3-15.9,14.1c-3.5,3.2-5.3,7.5-6.5,12
			c-1.8,6.5-3.7,12.9-5.4,19.4c-1.1,4-3.1,7.5-5.8,10.4c-2.5,2.7-4.6,5.7-6,9.1c-2.1,5.1-4.2,10.3-6,15.5c-2,5.9-0.5,11.8,0.8,17.6
			c1.1,5,0.4,9.4-2,13.8c-2.4,4.3-4.5,8.9-6.7,13.4c-1.2,2.6-3,4.7-5.9,4.8c-8,0.5-15.9,2.9-23.9,2.6c-8.4-0.3-15.4-4-21.5-9.7
			c-2-1.9-2.6-4.1-2.1-6.8c1.5-8.3,3.1-16.5,3.4-25c0.1-5,2.5-9.6,5.2-13.9c7.8-12.5,7.8-12.5,21.9-16c3.2-0.8,6.3-2,9.5-2.4
			c5.4-0.8,8.4-4.4,10.7-8.7c3.1-5.8,6-11.6,8.7-17.5c2-4.2,1.9-9,2.3-13.5c0.3-3.7,1.5-6,4.9-7.6c13.3-6,26.4-12.2,39.7-18.3
			c3.1-1.4,6.2-2.8,9.3-4.1C769,820.8,769.3,821.1,769.5,821.5z"/>
		<path class="st2" d="M1359.4,931.2c-1.3-3.2-1.3-5.9,1.1-9c2.7-3.4,3.6-8,5.1-12.1c5.9-16.2,11.8-32.4,17.8-48.6
			c0.3-0.9,0.7-1.8,1.6-2.3c1.9-0.1,1.9,1.6,2.3,2.7c4.4,13.7,8.8,27.4,13.1,41.1c0.3,1.1,0.5,2.3,1,3.3c6.3,13.5,6.5,27.8,5.9,42.2
			c-0.2,5.5-0.6,6.2-6.1,7c-6.6,1-13.3,1.7-19.9,2.5c-10.1,1.3-20.1,2.5-30.2,3.8c-13.7,1.8-27.3,3.6-40.9,5.4
			c-3.8,0.5-7.6,0.9-11.4,1.4c-3.9,0.5-7.2,2-10,5c-14,15-28.1,29.8-42.3,44.6c-2.1,2.2-3,4.8-3.6,7.7c-1.2,6-2.5,12-3.7,18
			c-0.4,1.7-0.8,3.4-1.8,4.8c-0.6,0.8-1.4,1.4-2.4,1.2c-1.2-0.2-1.3-1.3-1.3-2.3c-0.1-1.5-0.1-3.1-0.1-4.6c0-7.3,0.1-14.6,0-21.9
			c0-3.2,0.9-5.8,3.1-8.3c13.7-15.7,27.2-31.6,40.8-47.4c3.5-4.1,7.2-8,10.7-12c2.2-2.5,4.7-3.5,8.1-3.6c18-0.3,36-1.6,54-1.1
			c7.1,0.2,7.1,0,9.3-6.1c2.7,0.6,4.3-0.5,3.7-3.2c-0.6-3,2.2-6.9-2.2-8.8C1360.6,930.7,1360,931,1359.4,931.2z M1376.4,936.5
			L1376.4,936.5c0.1-0.8,0-1.5,0.1-2.3c0.1-2.2-0.5-3.6-3.2-3.6c-2.8,0-3.1,1.6-3.1,3.7c0,2.1,0,4.2,0.1,6.3
			c0.1,1.7,1.3,2.2,2.8,2.2c1.6,0,3.2-0.2,3.3-2.3C1376.4,939.2,1376.4,937.8,1376.4,936.5z M1390.3,936.9L1390.3,936.9
			c0-0.9,0-1.9,0-2.8c0.1-2.3-0.8-3.5-3.3-3.4c-2.2,0.1-3,1.2-2.9,3.2c0,2.1,0,4.1,0,6.2c0,2.2,1.3,2.9,3.3,2.8
			c1.8,0,2.9-0.7,2.9-2.6C1390.3,939.2,1390.3,938,1390.3,936.9z M1403.2,937.5c-0.1-1.4-0.1-2.8-0.2-4.1s-0.9-2-2.3-1.9
			c-1.3,0-2.2,0.7-2.2,2c-0.1,2.6-0.1,5.3,0.1,7.9c0.1,1.4,1.3,1.7,2.5,1.6c1.1,0,1.7-0.7,1.9-1.7
			C1403.1,940,1403.1,938.7,1403.2,937.5z"/>
		<path class="st2" d="M855,712.7c-0.2,1.1-0.7,1.4-1.3,1.4c-7.2,0.6-13.4,4.5-20.1,6.7c-2.5,0.8-3.5,2.4-3.8,5.1
			c-0.8,7.9-3.4,10.2-11.4,10.2c-4.1,0-8-0.2-11.1,3.3c-1.7,1.9-4.4,1.8-6.5,1.2c-8.7-2.6-17.5-0.9-26.2-1c-3.8,0-7.2-0.2-9.4-4.1
			c-1.1-1.9-3.1-2.6-5.4-2.9c-4-0.5-7.9-1.4-12-1.1c-2.1,0.1-4.2-0.4-6.2-1.2c-3.4-1.5-6.8-2.3-10.5-2.3c-4.7-0.1-10.7-8.3-9.8-12.9
			c0.2-1.1,0.9-1.7,1.9-1.8c1.7-0.1,3.4-0.2,5.2-0.2c32.4,0,64.8-0.1,97.2,0c8,0,16-1.8,24.1-1.1C851.5,712.1,853.5,711.6,855,712.7
			z"/>
		<path class="st2" d="M1441.9,914c-1.3-0.1-1.6-0.8-1.9-1.5c-2.8-7.1-5.6-14.2-8.5-21.3c-0.9-2.3-1-4.4,0.1-6.6
			c3.8-8.3,5.4-17.1,6.7-26c1.5-9.9,4.8-19.3,6.6-29.1c0.7-4.1,3.9-6.5,6.8-9c5.5-4.7,11.7-8.8,16.7-13.9
			c5.5-5.6,9.9-12.1,11.6-20.1c2.3-11.4,4.8-22.8,7.3-34.3c0.3-1.4,0.3-3.1,2.4-4.7c0.6,5.4,1.6,10.4,1.8,15.4
			c0.3,10.3,0.4,20.7-1,30.9c-0.4,2.8-1.3,5.1-3.6,6.8c-5.1,3.7-8,8.5-8,15c0,4.4-2.6,8-4.8,11.5c-10.2,16.1-17.8,33.5-24.6,51.2
			c-3,7.9-3.5,16.4-5.1,24.7C1443.5,906.7,1443.6,910.6,1441.9,914z"/>
		<path class="st2" d="M322.5,577.3c-0.4-17.1,2.3-33.9,4-50.8c1.6-16,3.5-31.9,5.2-47.9c0.8-7.2,1.6-14.4,2.4-21.7
			c0.1-1.1,0.4-2.3,0.9-3.3c2.8-6.5,5.7-12.9,9-20.2c2.5,5.3,4.1,10,5.1,15c-1.9,3.1-1.6,6.7-2,10c-1.5,11.4-2.5,22.8-3.6,34.2
			c-0.2,2.1,0,4.2,0.5,6.3l0,0c-1,0.9-1.6,2.1-1.7,3.5c-0.8,9-1.7,18.1-2.3,27.1c-0.2,3.2-1,6.4-1.1,9.6c-0.1,3.2-0.8,6.5,0.8,9.5
			c0.1,0.4,0,0.7-0.1,1c-1.3,0.7-1.9,1.8-1.9,3.3c-0.1,4.9-1.7,9.8-1.3,14.7c0.1,1.1-0.1,2.3-0.2,3.4c-0.9,5.6-1.5,6.2-7.4,6.3
			C326.7,577.4,324.6,577.3,322.5,577.3z"/>
		<path class="st3" d="M460.9,506.1c2.1-1.1,1.9-3.1,2.1-5c0.9-13.3,1.7-26.7,3.3-39.9c0.1-1.1,0.2-2.3,0.1-3.4
			c-1-10.2,3.8-18.5,8.5-26.9c0.1-0.2,0.6-0.3,1.3-0.5c2.1,7.8,3.8,15.7,2.6,23.6c-1.1,6.8-1.1,13.7-1.7,20.5
			c-0.6,7.6-1.1,15.2-1.7,22.8c-0.7,8.2-0.5,16.4-1.8,24.5c-0.9,5.6-0.9,11.4-1.1,17.1c-0.4,8.6-1.8,17.1-1.5,25.7
			c0.1,2.1-0.3,4.2-0.7,6.3c-0.6,3-2.3,4-5.2,4.1c-7.2,0.3-7.8-0.3-7.9-7.5c-0.1-3.7,1.2-7.2,1.2-10.8c0.3-4.6,0.7-9.1,1-13.7
			c-0.2-6.1,2.1-12,1.1-18.1C461.6,518.7,460,512.3,460.9,506.1z"/>
		<path class="st3" d="M489.6,516.4c0.3-1.1,0.9-2.2,0.9-3.3c0.1-11.9,1.9-23.6,2.6-35.4c0.6-9.9,1.7-19.8,2.3-29.7
			c0.1-1.3,0.5-2.7,1-3.9c2.2-5.3,4.9-10.3,8.4-16.5c1.6,8.8,4.2,16.2,2.8,24c-1.2,7-0.9,14.1-1.8,21.1c-1.1,8.7-1.2,17.5-2.2,26.2
			c-0.7,5.9-0.7,11.8-1,17.7c-0.5,8.2-1.1,16.4-1.7,24.6c-0.6,8.9-0.5,17.9-2,26.8c-0.3,1.9-0.3,4.1-2.8,4.4c-3,0.3-6.1,1-8.9-0.8
			c-1.1-0.7-1.1-2-1.1-3.1c0-2.3-0.1-4.6,0.1-6.9c1-11.4,2.1-22.8,3.1-34.2c0.1-1.7-0.1-3.4-0.2-5.1
			C489.2,520.4,489.4,518.4,489.6,516.4z"/>
		<path class="st3" d="M449.6,430.7c3.6,9.9,3.8,19.3,2.7,28.6c-0.8,6.8-1.1,13.7-1.6,20.5c-0.6,7.2-1,14.5-1.7,21.7
			c-0.8,8.4-0.5,16.8-1.7,25.1c-0.9,6.4-1.1,13-1.2,19.4c-0.2,8-1.5,16-1.5,24c0,4.3-0.8,4.8-5.2,5c-8.4,0.4-8.7-0.2-7.8-8.4
			c0.7-6.1,0.8-12.2,1.4-18.3c1.4-13.3,2.6-26.6,3.3-39.9c0.4-6.9,1.3-13.7,1.5-20.6s0.9-13.7,1.8-20.5c0.6-4.9,0.1-9.9,0.9-14.9
			c0.7-4.4,1.9-8.6,4.2-12.4C446.4,437.4,446.8,434,449.6,430.7z"/>
		<path class="st2" d="M365.4,561c-0.1,3.8-0.1,7.7-0.5,11.5c-0.2,2.1-0.8,4.4-3.5,4.7c-3,0.3-6.2,1-8.9-0.8
			c-1.6-1.1-1.2-3.2-1.1-4.8c0.4-6.1,0.9-12.2,1.4-18.3c0.6-7,1.3-14.1,2-21.1c1.1-12.8,2.2-25.5,3.3-38.3c0.4-5.3,0.8-10.7,1.1-16
			c0.4-7.1,1.6-14.1,1.6-21.2c-0.1-7,4.5-17.4,9.7-23c2,8.6,3.9,16.9,2.2,25.6c-1.1,5.5-0.4,11-1.3,16.6c-1.1,7-1,14.1-1.5,21.2
			c-0.3,0.7-0.9,1.3-1,2c-1.1,9.7-1.7,19.5-2.1,29.2c-0.1,1.2,0.1,2.3,0.9,3.3c0.3,5.1-1.7,9.9-1.1,15
			C365.4,551.3,365.7,556.2,365.4,561z"/>
		<path class="st2" d="M1510.9,643c1.6-0.2,2.2-1.8,3.4-2.5c-0.3,11.4-4.6,20.8-14.5,27c-3.1,2-4.9,4.3-5.5,8.1
			c-1,6.4-2.8,12.7-4.1,19.1c-0.5,2.5-1.4,4.9-4,6c-7.4,3.2-10.5,9.8-13.2,16.6c-2,5.2-3.9,10.5-4.8,15.9c-1.5,8.2-6.4,14.1-11.7,20
			c-5.4,5.9-10.9,11.8-16.5,17.6c-2.1,2.2-3.1,4.8-3.8,7.6c-1.9,8.8-3.8,17.6-5.8,26.4c-0.4,1.8-1,3.6-1.6,6c-1-2.7-0.9-4.6-0.6-6.4
			c1.7-9.5,0.9-19.1,0.9-28.7c0-3.9,1.2-6.9,4-9.6c5.4-5.1,10.6-10.5,15.9-15.8c4.4-4.4,7.7-9.3,8.1-16c0.4-7.6,4.1-14.3,6.6-21.3
			c2.8-7.9,7.5-14.1,14.7-18.5c2.5-1.5,3.5-3.9,4-6.7c1.4-7.9,2.7-15.8,4.2-23.7c0.8-4.6,1-4.9,5.5-3.6c4.5,1.4,7.3-0.1,9.7-3.7
			C1504.8,652.1,1509.5,648.6,1510.9,643z"/>
		<path class="st3" d="M1040.6,839.3c-6.5,2.8-9.4,1.4-9.2-5.3c0.5-16.3-0.8-32.5-1.6-48.7c-0.7-13.9,0-27.9-1.7-41.8
			c-0.8-6-0.2-12.2-0.3-18.4c0-3.2,0-6.5-0.5-9.7c-0.8-5.7,2.8-10.8,7.9-11.5c6.3-0.9,10.4,1.9,11.8,8.1c0.1,0.4,0.2,0.8,0.2,1.1
			c0.3,8.2,0.6,16.4,1,24.6c-3.7-3.2-6.1-8.2-12.1-8.9c0,2.1-0.1,3.8,0,5.5c0.8,19.7,1.5,39.4,2.4,59.1
			C1039.1,808.7,1039.9,824,1040.6,839.3z"/>
		<path class="st3" d="M1010.4,830.5c-6.4-5.1-8.9-11.6-9.2-19.9c-1-24.1-0.6-48.2-1.1-72.3c-0.1-6.5-1-12.9-1-19.5
			c0-2.7,0.4-5.4,1.1-7.9c1.5-5,5.2-7.4,10.4-7c4.6,0.4,7.4,3.7,8.1,8.8c1,7,1.3,14.1,1,21.2c-2.8-2.4-4.4-5.7-6.5-8.7
			c-1.2-1.8-2.2-3.9-4.8-4.3c-0.7,2.3-0.4,4.5-0.3,6.5c0.4,19.3,1,38.5,1.3,57.8C1009.6,800.3,1010.9,815.4,1010.4,830.5z"/>
		<path class="st4" d="M1010.4,830.5c0.5-15.1-0.8-30.1-1-45.2c-0.3-19.3-0.9-38.6-1.3-57.8c0-2.1-0.4-4.2,0.3-6.5
			c2.6,0.4,3.6,2.6,4.8,4.3c2,3,3.7,6.3,6.5,8.7c0.9,34.4,1.7,68.9,2.5,103.1c-2.3,1-3.3-0.8-4.7-1l0.1,0.1
			C1015.5,833.8,1012.2,833.1,1010.4,830.5z"/>
		<path class="st4" d="M826.1,612c0.2,13.9-0.1,13.7-7.9,25.1c-5.1,7.4-12,12.1-19.4,16.5c-1.6-0.2-3.4,0.1-4.6-1.4c0-10,0-20,0-30
			c0.2-2.7,0.4-5.3,0.7-8c0.2-2.3,0.3-4.8,2.1-6.4c3.2-2.7,6.6-5.1,11.1-5.5C816.3,601.7,822.1,605.1,826.1,612z"/>
		<path class="st3" d="M982.8,816.6c-10.2-7.2-10.3-7.2-10.2-19.6c0.2-18.9-1.5-37.7-1.5-56.7c0-7.4-0.8-14.8-0.9-22.3
			c0-1.1,0-2.3,0-3.4c0.3-6,4.5-10.4,10-10.5s10.4,4.6,10.6,10.6c0.2,5.2,0.1,10.3,0.1,15.5c-2.4-2-4-4.5-5.5-7.3
			c-1.1-2.1-2.4-3.8-5.2-3.8c-0.1,1-0.4,1.7-0.3,2.4c0.4,13.6,0.8,27.1,1.2,40.7C981.8,780.3,982.3,798.5,982.8,816.6z"/>
		<path class="st4" d="M1040.6,839.3c-0.7-15.3-1.5-30.6-2.1-45.9c-0.8-19.7-1.6-39.4-2.4-59.1c-0.1-1.7,0-3.4,0-5.5
			c6,0.7,8.3,5.8,12.1,8.9c0.8,15.2,1.7,30.5,2.5,45.7c0.5,9,0.8,17.9,1.3,26.9c0.2,3-0.3,5.7-1.7,8.3
			C1046.9,825.4,1044.7,832.8,1040.6,839.3z"/>
		<path class="st3" d="M421.5,526.8c-3.5,3.3-1.7,7.6-2.2,11.4c-0.9-0.3-1.7-0.8-2.2-1.7c-2.1-3.6-5.3-5.3-9.4-5.2
			c0.1-11.1,1.3-22.1,2.2-33.2c1-11.6,1.9-23.2,2.5-34.9c0.6-10.9,2.7-21.2,9.5-30.2c1.5,0,1.4,1.5,1.6,2.4c2.9,9.6,2,19.3,1.1,29
			c-0.7,7.6-1.2,15.2-1.8,22.9c-0.2,2.1,0.1,4.2,1.1,6.2c-0.4,0.4-0.7,0.8-1.1,1.3c-1.9,4.1-1.4,8.2-0.5,12.4c0.2,1.3,0,2.5-0.6,3.6
			c-2.2,4.9-1.6,9.9-0.4,14.8C421.4,525.9,421.4,526.4,421.5,526.8z"/>
		<path class="st3" d="M393.8,517.6c-1.8,4.5-0.5,9.2-1,13.8c-4.2-1.5-8.5,0.1-12.7,0c0-7.7,1.3-15.2,1.9-22.8
			c0.6-7.2,0.9-14.5,1.4-21.7c0.9-11.8,2.1-23.6,2.7-35.4c0.4-6.7,5.3-12,7.9-18c2.6,0.5,2.1,2.2,2.4,3.3c1.5,7.3,2.3,14.5,1.4,22.2
			c-0.9,6.8-1.5,13.7-1.6,20.6c0,5.7-2,11.4-0.7,17.1C395.3,503.6,395,510.6,393.8,517.6z"/>
		<path class="st4" d="M982.8,816.6c-0.5-18.1-1-36.3-1.5-54.4c-0.4-13.6-0.8-27.1-1.2-40.7c0-0.7,0.2-1.5,0.3-2.4
			c2.9,0,4.2,1.7,5.2,3.8c1.4,2.7,3.1,5.3,5.5,7.3c0.3,1.7,0.7,3.4,0.8,5.1c0.9,24.5,2,49,2.4,73.4C994.4,822,991,819.9,982.8,816.6
			z"/>
		<path class="st4" d="M962.1,723.6c0.8,2.6,0.8,5.3,0.9,7.9c0.8,22.9,1.6,45.8,2.3,68.7c0.2,5.6-2.4,7.2-7.4,4.5
			c-2.3-1.3-4.8-2.4-6.6-4.4c0.1-2.5,0.3-5,0.3-7.4c0.1-23.7,0.2-47.4,0.4-71.1c0-2-0.5-4.1,0.8-6.1
			C956.7,717.7,958.8,721.5,962.1,723.6z"/>
		<path class="st3" d="M1064.6,790.5c-2.4,2.5-3.3,6-5.9,9.3c-1.7-2.9-1.9-5.6-2.2-8.4c-1.5-18.7-1-37.4-1.2-56.1
			c-0.1-7.6-1.5-15.2-1-22.8c0.4-6.4,4.2-10.1,10.3-9.7c3.6,0.2,7.1,2.8,7.9,6.4c0.7,3.3,1.2,6.8,1.3,10.2c0.3,7.2-0.2,14.5,1,21.7
			c-3.9-3.5-6.6-8.4-11.8-10.1c-1,1.1-0.8,2-0.8,3c0.5,17.6,0.9,35.2,1.4,52.9C1063.6,788.1,1063.4,789.5,1064.6,790.5z"/>
		<path class="st2" d="M905.6,769.4c3.6,0,7.2,0.2,10.9,0c3.5-0.2,5.7,1.2,7.1,4.4c4.2,9.6,8.7,19.2,13,28.8c2,4.5,4.1,9.1,5.9,13.7
			c1.7,4.4,4.8,6.1,9.4,6c4.2-0.1,8.4,0.2,12.6,0c9.4-0.5,18.7,1.5,28.1,1.2c2.8-0.1,4.6,1.2,5.9,3.6c8,14.2,16.1,28.3,24.1,42.5
			c1.6,2.9,4,5.5,4.6,9.6c-2.6-0.9-3.3-2.8-4.2-4.2c-8.6-12.9-17.4-25.7-25.7-38.8c-2.9-4.6-6.7-6.5-11.8-6.8
			c-1.7-0.1-3.4-0.1-5.2-0.1c-11.5,0.4-22.9-0.6-34.4-1.1c-3.2-0.1-4.8-1.7-6-4.4c-4.5-10.6-9.1-21.1-13.7-31.6
			c-2.2-5.1-4.6-10.1-6.8-15.2c-1.1-2.5-2.8-3.8-5.6-4.3C911.1,772.3,908.2,771.9,905.6,769.4z"/>
		<path class="st2" d="M996,854.8c29.6,47.7,58,95.4,87.3,143.7c-2.9,0-3.5-1.6-4.2-2.7c-6.7-9.4-13.3-18.7-19.9-28.2
			c-10.2-14.6-20.3-29.3-30.5-43.9c-2.3-3.3-4.3-6.8-6-10.4c-8.8-17.9-17.7-35.7-26.5-53.6C995.6,858.5,994.6,857.2,996,854.8z"/>
		<path class="st4" d="M694.2,548.6c0,4.8,0,9.6,0,14.4c0,2.5-0.5,4-3.5,4c-5.4-0.1-10.7-0.1-16.1,0c-2.2,0-3.1-1.1-3.1-3.2
			c0-10,0-19.9,0-29.9c0-2.2,1.2-3.5,2.9-4.6c4.1-2.7,8.5-3.4,13.2-1.9c5.2,1.7,6.6,3.7,6.6,9.2
			C694.2,540.5,694.2,544.6,694.2,548.6L694.2,548.6z"/>
		<path class="st4" d="M614.7,552.4c0-4.6,0.1-9.2-0.1-13.8c-0.1-2.9,1.1-4.7,3.5-6c4-2.3,8.2-2.9,12.7-1.3c5,1.8,6.2,3.5,6.2,8.9
			c0,8.8-0.1,17.6,0,26.4c0,2.8-0.9,4.2-3.9,4.1c-4.8-0.2-9.6-0.1-14.3,0c-2.9,0.1-4.2-0.9-4.1-3.9
			C614.9,562,614.7,557.2,614.7,552.4z"/>
		<path class="st3" d="M962.1,723.6c-3.4-2.1-5.4-5.9-9.3-7.9c-1.3,2-0.8,4.2-0.8,6.1c-0.2,23.7-0.3,47.4-0.4,71.1
			c0,2.5-0.2,5-0.3,7.4c-5-5.3-6.3-11.5-6.6-18.8c-0.9-21-0.8-42.1-0.9-63.1c0-1.9-0.1-3.9,0.2-5.7c0.7-4.5,4.2-7.5,8.7-7.7
			c4.7-0.1,8.7,2.9,9.3,7.7C962.4,716.3,962.1,720,962.1,723.6z"/>
		<path class="st2" d="M496.6,271.3c0.6,7.8,1.2,15.6,1.9,23.3c1.3,14.6,2.6,29.2,3.8,43.8c0.1,1.5,0,3.4,1.6,4c3,1.2,3,3.6,2.9,6.1
			c-0.1,4.2-0.1,8.4-0.2,12.6c-3.4,0-7-0.5-10.3,0.1c-5.2,0.9-9-2.3-13.3-4c-1.3-0.5-1.3-1.8-0.9-3c1.2-3.6,2.4-7.3,3.6-10.9
			c0.6-1.9,1.9-2.8,3.8-2.9c2.3-0.2,3.3-1.6,3.5-3.8c0.3-2.5,1.1-4.9,1-7.4c-0.6-17,1.3-33.9,1.3-50.9
			C495.3,275.9,494.6,273.3,496.6,271.3z"/>
		<path class="st4" d="M1379.8,589.9c0-2.9,0-5.7,0-8.6c0.1-5.7,3-10.2,6.9-14c2.3-2.2,4.8-2.3,7.3-0.4c4.8,3.7,8.7,8,8.6,14.7
			c0,4.8,0.1,9.5,0.2,14.3c0,2.5-1.1,3.9-3.6,4.3c-5.3,0.7-10.6,1.6-15.8,2.4c-2.4,0.4-3.6-0.4-3.6-3
			C1379.9,596.4,1379.8,593.1,1379.8,589.9C1379.9,589.9,1379.8,589.9,1379.8,589.9z"/>
		<path class="st2" d="M815.1,752.2c3.9,0.4,7.7,1.3,9.7,5.6c6,13.3,14.5,25.1,21.8,37.6c0.4,0.7,0.9,1.3,1.2,1.9
			c0.6,1,1.4,2.1,0.7,3.2c-0.8,1.2-2.1,0.5-3.1,0.2c-3.6-0.9-6.7-2.9-9.4-5.4c-6.3-5.8-12.5-11.7-15.8-20
			c-2.5-6.3-7.7-10.8-12.2-15.8c-0.9-1-2-1.8-2.9-2.7c-1.4-1.4-1.5-2.9,0.7-3.3C808.8,753,811.8,752.7,815.1,752.2z"/>
		<path class="st4" d="M1064.6,790.5c-1.2-1-1-2.4-1.1-3.7c-0.5-17.6-0.9-35.2-1.4-52.9c0-0.9-0.2-1.9,0.8-3
			c5.2,1.8,7.9,6.7,11.8,10.1c0.5,10.4,0.8,20.9,1.4,31.3c0.2,3.5-0.8,6.3-3.1,8.8C1070.2,784.3,1067.4,787.4,1064.6,790.5z"/>
		<path class="st2" d="M380.1,531.3c4.2,0.1,8.5-1.5,12.7,0c-0.8,5.7-1.9,11.5-0.3,17.2c0.7,3.8-0.5,7.7,0.5,11.5
			c-0.8,0.3-1.5,0.7-2.3,1c-2.3,0.6-4.4,1.6-4.3,4.4c0.1,2.5,2.1,3.4,4.2,3.9c-0.2,1.3-0.2,2.7-0.5,4c-0.5,2.6-2,4.1-4.8,4
			c-1.1,0-2.3,0.1-3.4,0c-4.6-0.2-5.1-0.8-5.2-5.5c-0.2-7.1,1.2-14.1,1.6-21.2C378.6,544.2,379.5,537.8,380.1,531.3z"/>
		<path class="st2" d="M407.6,531.3c4.1,0,7.3,1.7,9.4,5.2c0.5,0.9,1.3,1.4,2.2,1.7c-0.6,8.5-1.3,17.1-1.9,25.6
			c-0.2,2.7-0.2,5.3-0.4,8c-0.3,3.6-0.9,4.1-4.5,4.4c-0.2,0-0.4,0-0.6,0c-8.3,0.4-8.3,0.1-7.9-8.2c0.5-10.8,2.3-21.6,2.6-32.4
			C406.6,534.1,406.8,532.6,407.6,531.3z"/>
		<path class="st3" d="M918.5,708.4c2.3-4.1,4.2-5.1,8.1-4.4c3.3,0.6,5.4,3,5.7,6.9c1.4,17.9,1.2,35.8,1.1,53.7c0,0.7,0,1.5-1.1,2.2
			c-4.3-6.4-5.8-13.8-8.3-20.9c0.4-7.9,0.8-15.9,1.3-23.8C925.7,716.2,924,711.4,918.5,708.4z"/>
		<path class="st2" d="M431.8,887.1c-2.6,1.6-5,3.3-7.7,4.7c-2.8,1.4-3.7,3.5-3.7,6.5c0.1,8,0,16.1,0,24.1c0,1,0,1.9,0,2.9
			c-0.2,4.2-0.8,5-3.7,5.1c-4.1,0.1-6.4-1.7-6.6-5.4c-0.3-9.4-0.1-18.7,1.3-28c0.5-3.5,2.5-6.4,4.2-9.4c0.7-1.3,1.9-1.9,3.4-1.9
			c4.2,0,8.3,0,12.5,0C431.5,886.2,431.7,886.6,431.8,887.1z"/>
		<path class="st4" d="M393.8,517.6c1.2-7,1.5-14,1.7-21c0.7-0.7,1.4-1.2,2.4-1.4c6.8-1.1,7.7-0.4,7.2,6.6c-0.6,7.6,0,15.3,0.1,22.9
			c0,4-0.1,4.1-4.1,4.4c-7.2,0.5-7.2,0.5-7.1-6.8C394,520.6,393.9,519.1,393.8,517.6z"/>
		<path class="st4" d="M344,498.9C344,498.9,344,499,344,498.9c0.3-0.2,0.6-0.5,1-0.5c8.3-1.5,8.9-1,8.5,7.4
			c-0.4,7.1,0,14.1,0.1,21.2c0.1,4.6,0,4.6-4.1,5c-7.2,0.8-7.4,0.7-7.1-6.7C342.7,516.4,343.4,507.7,344,498.9z"/>
		<path class="st4" d="M489.6,516.4c-0.2,2-0.3,4-0.5,6c-2.5,0.1-5,0.2-7.4,0.4c-2.3,0.2-3.6-0.6-3.6-3.2c0.2-9.4,0.9-18.7,2-28
			c0.3-2.7,1.6-3.1,6.3-2.9c2.7,0.1,3.2,1.3,3.1,3.6C489.2,500.3,488.8,508.3,489.6,516.4z"/>
		<path class="st4" d="M421.5,526.8c-0.1-0.5-0.1-0.9-0.2-1.4c0.1-4.9,0.3-9.9,0.4-14.8c0.6-1.2,0.8-2.4,0.6-3.6
			c0.6-4.1,1-8.2,0.5-12.4c0.4-0.4,0.7-0.8,1.1-1.3c10.7-0.5,9.3-0.9,8.7,8.9c-0.4,6.7,0.2,13.4,0.2,20c0.1,4.4,0,4.5-4.4,4.7
			C426.1,527,423.8,526.9,421.5,526.8z"/>
		<path class="st4" d="M516,504.1c0,4.2-0.1,8.4,0,12.6c0.1,2.8-0.6,4.1-3.7,4.3c-7.5,0.4-7.8,0.4-7.4-7.1
			c0.5-7.6,1.1-15.2,1.7-22.8c0.1-1.4-0.3-3.3,1.8-3.7c2.2-0.4,4.5-1,6.7,0c1.2,0.6,1,1.9,1,3.1C516.1,494.9,516.1,499.5,516,504.1
			C516.1,504.1,516,504.1,516,504.1z"/>
		<path class="st4" d="M367.6,531.4c-0.8-1-0.9-2.1-0.9-3.3c0.4-9.8,1-19.5,2.1-29.2c0.1-0.7,0.7-1.3,1-2c8.3,0.2,8.2,0.2,8.1,8.8
			c-0.1,7,0.1,14.1,0.1,21.1c0,4-0.2,4.1-4.2,4.4C371.7,531.3,369.6,531.3,367.6,531.4z"/>
		<path class="st4" d="M460.9,506.1c-0.9,6.3,0.7,12.6-0.5,18.8c-2.5,0.1-4.9,0.2-7.4,0.4c-2.1,0.2-3.3-0.6-3.3-2.8
			c0.3-9.5,0.8-19,1.8-28.5c0.3-2.7,1.7-3.1,6.2-2.9c2.6,0.1,3.2,1.3,3.1,3.6C460.9,498.5,460.9,502.3,460.9,506.1z"/>
		<path class="st4" d="M918.5,708.4c5.5,3,7.3,7.8,6.9,13.8c-0.5,7.9-0.9,15.8-1.3,23.8c-7.8-0.5-7.9-0.5-7.8-8.3
			c0-7,0.1-14.1,0.3-21.1C916.5,713.7,916.6,710.8,918.5,708.4z"/>
		<path class="st2" d="M375.3,340.6c0.1-1.2,0.8-2.1,1.8-2.9c1.3-0.1,1.4,1.1,1.8,1.9c3.3,7.5,6.6,15,9.9,22.5
			c0.9,2.1,2.1,4.2-0.3,6.2c-2.5-3.9-6.9-2.9-10.5-3.6c-7.3-1.4-7.3-1.1-5.6-8.4C373.6,351.1,375.9,346.1,375.3,340.6z"/>
		<path class="st2" d="M318.8,618.8c-1-1.5-2-3.1-3-4.6c1.8-0.9,3.6-1.2,5.6-1.1c19.7,0.7,39.3-1.8,59-1.2c2.3,0.1,4.5,0,6.8,1
			C364.3,614.8,341.5,616.8,318.8,618.8z"/>
		<path class="st2" d="M685.6,666.7c-8.1-0.7-15.6,2.1-23.4,2.6c-7.9,0.5-9.2-1-7.9-8.8c0.9-5.7,1.7-11.3,2.3-17
			c0.2-1.7,0.3-4.7,2.7-4.3s1.5,3.1,1.3,4.9c-0.7,5.5-1.5,11-2.1,16.5c-0.4,3.8,0.1,4.4,4,4.1c4.6-0.3,9.1-1,13.6-1.7
			C679.9,662.3,683,663.5,685.6,666.7z"/>
		<path class="st4" d="M673.6,598.1c0,2.5,0,4.9,0,7.4c0,1.9-1,2.8-2.8,2.7c-0.2,0-0.4,0-0.6,0c-9.9,0.1-8.1,0.2-8.3-7.6
			c-0.1-3,0-6.1,0-9.1c0-2.2,0.6-3.4,3.2-3.6c8.2-0.7,8.6-0.4,8.6,8C673.6,596.5,673.6,597.3,673.6,598.1L673.6,598.1z"/>
		<path class="st4" d="M701.3,596.4c0,3.1,0,6.1,0,9.2c0,1.9-0.9,2.8-2.8,2.7c-1.5,0-3.1,0-4.6,0c-2.2,0-3-1.2-2.9-3.3
			c0-5.3,0.1-10.7,0-16c-0.1-3,1.2-4.2,4.1-3.9c0.9,0.1,1.9,0.1,2.9,0c2.3-0.1,3.6,0.8,3.5,3.3C701.2,591,701.3,593.7,701.3,596.4
			L701.3,596.4z"/>
		<path class="st2" d="M444.6,584.9c-0.3,0.1-0.7,0.4-1,0.4c-17.6-0.6-35.2,1.8-52.8,1.3c-5.9-0.2-11.9-0.4-17.7,0.9
			c-1.5,0.3-3.1,0.3-4.6,0.1c-16-2.1-32.1-0.6-48.2-1.1c-1.1,0-2.2,0-3.4-0.4c1.7-1.1,3.5-0.7,5.3-0.7c8.8-0.1,17.6,0.3,26.4-0.2
			c29.8-1.7,59.7-0.9,89.5-1c2.1,0,4.2,0,6.3,0C444.5,584.5,444.5,584.7,444.6,584.9z"/>
		<path class="st3" d="M887.3,682.2c0.2-2.1,0.2-4.2,0.6-6.2c0.5-2.4,2-4.2,4.7-4.1c2.6,0,4.4,1.4,4.9,3.9c0.8,3.7,1.7,7.5,1.3,11.3
			c-0.3,3.4-1,4-4.8,4.1c-4.4,0.2-6-0.7-6.4-3.9c-0.2-1.7,0-3.4,0-5.1C887.5,682.2,887.4,682.2,887.3,682.2z"/>
		<path class="st3" d="M931.1,684c0,1.3,0,2.1,0,2.9c-0.2,4.5-0.6,5.2-4,5.5c-4.6,0.4-6.3-0.6-7.1-4.6c-0.6-3-0.5-6.1-0.2-9.1
			c0.4-3.2,3-5.7,5.5-5.6c3,0.1,4.1,2.3,4.9,4.7C931.1,680,931.2,682.3,931.1,684z"/>
		<path class="st3" d="M947.2,684.9c0,1.3,0,2.3,0,3.2c-0.2,4.7-1.2,5.5-5.9,5.4c-2.7-0.1-4.4-1-4.4-4c0-2.8-0.2-5.7-0.7-8.5
			c-0.3-2.3,0.3-4.6,2.2-6.2c2.6-2,6.7-0.7,8,2.5C947.6,679.9,947.1,682.6,947.2,684.9z"/>
		<path class="st3" d="M909.7,691.2c-5.2,0.1-5.9-0.6-6.1-5.8c-0.1-2.7-0.1-5.4,0.2-8c0.4-3.3,3.2-5.6,5.7-5.3
			c2.6,0.3,4.2,2.3,4.4,5.8c0.2,2.7,0.2,5.3,0.4,8C914.9,690.6,914.4,691.2,909.7,691.2z"/>
		<path class="st3" d="M985.4,685.6c0-1.9-0.2-3.8,0-5.7c0.4-2.9,2.3-4.6,4.9-4.6c2.7-0.1,4.8,1.5,5.1,4.4c0.3,4,0.3,8,0.1,12
			c-0.2,3.2-2.8,3-5.1,3.1c-2.4,0-4.7-0.2-4.9-3.4C985.2,689.4,985.3,687.5,985.4,685.6C985.3,685.6,985.4,685.6,985.4,685.6z"/>
		<path class="st3" d="M1047.4,686.8c0,1.1,0,2.3,0,3.4c-0.2,4.9-1.1,5.7-5.7,5.5c-3.6-0.2-4.4-0.8-4.6-4.3
			c-0.2-3.4-0.2-6.9,0.1-10.3c0.3-3.2,2.4-4.9,5.3-4.8c2.6,0.1,4.4,1.7,4.8,4.7C1047.5,682.9,1047.3,684.8,1047.4,686.8
			C1047.3,686.8,1047.3,686.8,1047.4,686.8z"/>
		<path class="st3" d="M1030.1,686.9c0,1.5,0,3,0,4.6c0,2-0.4,3.8-2.9,4.1c-2.8,0.3-6.9-1.4-7.2-3.4c-0.5-4-0.6-8,0-11.9
			c0.4-2.6,3.1-5,5-4.6c2.7,0.5,4.4,2.4,4.7,5c0.3,2,0.1,4.2,0.1,6.3C1030,686.9,1030,686.9,1030.1,686.9z"/>
		<path class="st3" d="M1054.4,686.7c0-1.9-0.1-3.8,0-5.7c0.2-2.3,1.4-3.9,3.8-4.4c2.1-0.4,3.6,0.8,4.9,2.3c0.9,1,1.4,2.3,1.4,3.6
			c0.1,3.2,0.1,6.5,0,9.7c-0.1,3.1-2.2,3.6-4.7,3.6c-3.9,0.1-5.1-0.6-5.4-3.4C1054.2,690.5,1054.3,688.6,1054.4,686.7
			C1054.3,686.7,1054.4,686.7,1054.4,686.7z"/>
		<path class="st3" d="M1012.8,686c0,1.3,0,2.2,0,3.2c-0.2,4.9-1.3,5.9-6.3,5.5c-2.5-0.2-4-1.1-4-3.8c0-3.4-0.2-6.8,0-10.3
			c0.2-3.2,1.8-5.2,4.2-5.3c2.9-0.1,4.5,1.7,5.5,4.1C1013.2,681.6,1012.7,684,1012.8,686z"/>
		<path class="st3" d="M969.2,684.5c0-1.7-0.1-3.4,0-5.1c0.1-2.5,1.2-4.4,3.8-5.1c2.1-0.5,5,1.1,5.8,3.6c1.3,4.4,1.2,9.1,0.2,13.5
			c-0.6,2.6-3.3,2-5.3,2s-4-0.2-4.3-2.7c-0.2-2.1,0-4.2,0-6.2C969.3,684.5,969.2,684.5,969.2,684.5z"/>
		<path class="st3" d="M953.1,684.5c0-1.9-0.1-3.8,0-5.7c0.2-2.3,1.4-4,3.8-4.4c2.4-0.4,4.1,1,5.1,3c2.2,4.5,1.6,9.4,0.9,14.1
			c-0.4,2.7-3.3,2.1-5.3,2.1s-4-0.2-4.4-2.7c-0.3-2.1-0.2-4.2-0.3-6.3C953,684.5,953.1,684.5,953.1,684.5z"/>
		<path class="st3" d="M882.8,682c0,0.8,0,1.5,0,2.3c-0.1,5.2-1.6,6.3-6.7,5.7c-2.3-0.3-3.5-1.3-3.6-3.6c0-3.6-0.1-7.3,0-10.9
			c0.1-2.3,1.2-4.1,3.6-4.6c2.7-0.6,4.3,1.1,5.5,3.2C883.1,676.6,882.8,679.3,882.8,682z"/>
		<path class="st3" d="M1070.3,687.3c0.1-1.9,0-3.8,0.3-5.7c0.5-2.6,2.1-4.5,4.8-5c1.9-0.3,4.7,2.1,5,4.7c0.4,3.8,0.3,7.6,0.1,11.3
			c-0.2,3.2-2.8,3-5.1,3.1c-2.4,0-4.7-0.2-4.9-3.4c-0.1-1.7,0-3.4,0-5.1C1070.4,687.3,1070.4,687.3,1070.3,687.3z"/>
		<path class="st4" d="M1365.4,644.2c0,3.2,0,6.5,0,9.7c0,1.9-1.1,2.6-3,2.6s-2.8-0.9-2.8-2.8c0-6.3,0-12.6,0-18.8
			c0-2.1,1.2-2.5,3-2.5c1.9,0,2.9,0.7,2.8,2.7C1365.4,638.1,1365.5,641.2,1365.4,644.2L1365.4,644.2z"/>
		<path class="st4" d="M513.4,545.3c0,1.1,0.1,2.3,0,3.4c-0.2,4-0.3,4.1-4.2,4.5c-7,0.6-7.2,0.4-6.7-6.5c0.6-8.6-0.6-7,7.5-7.9
			c2.9-0.3,3.8,1,3.6,3.6c-0.1,0.9,0,1.9,0,2.9C513.5,545.3,513.5,545.3,513.4,545.3z"/>
		<path class="st4" d="M485.9,547.5c-0.1,6.9-2.1,8.5-9,7.5c-1.7-0.2-2.3-1.1-2.2-2.7c0.2-3.1,0.4-6.1,0.5-9.2
			c0.1-1.6,0.9-2.3,2.5-2.6C485,539.2,486.1,540.1,485.9,547.5z"/>
		<path class="st4" d="M459.4,543c-0.3,4.6-0.7,9.1-1,13.7c-0.9,0-1.9,0.2-2.8,0.1c-2.4-0.1-4.9,1.2-7.1-0.4
			c-0.7-0.5-0.5-11.4,0.1-12.4c0.5-0.9,1.4-1.2,2.4-1.2C453.7,542.8,456.6,542.2,459.4,543z"/>
		<path class="st4" d="M431.1,551.3c0-0.1,0,0.1,0,0.3c-0.3,6.1-2.7,8.1-8.8,7c-1.4-0.2-2-1-2-2.2c0-3.2,0.1-6.4,0.2-9.7
			c0-1.9,1.2-2.5,2.9-2.7C430.8,542.9,431.5,543.5,431.1,551.3z"/>
		<path class="st4" d="M365.4,561c0.3-4.9,0-9.8,1.1-14.6c10.3-0.1,9.1-1.9,9,8.8c0,5.2-0.3,5.3-5.5,5.7
			C368.4,561.1,366.9,561,365.4,561z"/>
		<path class="st4" d="M1367.3,644.2c0-3,0-6.1,0-9.1c0-1.5,0.4-2.6,2.2-2.7c2.1-0.1,2.6,1,2.6,2.8c0,6.1,0,12.1,0,18.2
			c0,1.6-0.3,3.1-2.4,3c-2.1,0-2.4-1.5-2.4-3.1C1367.3,650.3,1367.3,647.3,1367.3,644.2L1367.3,644.2z"/>
		<path class="st4" d="M339.6,549.7c0.2-0.3,0.2-0.7,0.1-1c8.7-2.8,9.6-2.2,9.4,6.5c0,0.9-0.1,1.9,0,2.8c0.3,3-1.5,3.9-4.1,4.1
			c-5,0.5-5.5,0.1-5.5-5C339.6,554.6,339.6,552.1,339.6,549.7z"/>
		<path class="st4" d="M393,560c-1-3.8,0.2-7.7-0.5-11.5c0.4-1.4,0.2-3.2,2.3-3.3c2.2-0.1,4.5-0.8,6.7,0.3c0.3,0.1,0.5,0.6,0.6,0.9
			c0.4,3.8,0.2,7.6-0.2,11.3c-0.1,1.1-1.2,1.4-2.1,1.5C397.5,559.5,395.2,559.8,393,560z"/>
		<path class="st4" d="M1378.7,644.8c0,3,0,6.1,0,9.1c0,1.2-0.2,2.3-1.7,2.5c-1.5,0.1-2-1-2-2.1c-0.1-6.4-0.1-12.9,0-19.3
			c0-1.2,0.5-2.3,2-2.2s1.8,1.3,1.8,2.4C1378.8,638.3,1378.7,641.5,1378.7,644.8z"/>
		<path class="st4" d="M1031.4,599.9c-0.2,1.9,0.8,4.6-2.9,4.7c-3.6,0.2-4.3-0.3-4.4-4c0-0.8,0-1.5,0-2.3c-0.2-2.5,0.6-3.9,3.5-3.8
			c3.4,0.2,3.7,0.4,3.9,4C1031.4,598.9,1031.4,599.3,1031.4,599.9z"/>
		<path class="st4" d="M1032.4,645.1c0,4.5-0.2,4.8-3.5,4.9c-3.5,0.1-3.9-0.3-4-4.5c-0.1-4.7,0.4-5.3,3.9-5.2
			C1032.1,640.3,1032.4,640.7,1032.4,645.1z"/>
		<path class="st4" d="M966.6,577.3c0.2-1.8-0.8-4.5,2.9-4.6c3.6-0.1,4.2,0.3,4.4,4c0,0.8-0.1,1.5,0,2.3c0.2,2.8-1.2,3.5-3.8,3.6
			c-2.8,0-3.7-1.2-3.5-3.8C966.7,578.3,966.6,577.9,966.6,577.3z"/>
		<path class="st4" d="M1359.4,931.2c0.5-0.1,1.2-0.5,1.6-0.3c4.5,1.9,1.7,5.8,2.2,8.8c0.5,2.7-1.1,3.8-3.7,3.2
			C1359.5,938.9,1359.5,935,1359.4,931.2z"/>
		<path class="st4" d="M1391.8,635.8c2.9,5.6,2,10.4,0.5,15.2C1390,646.3,1390.3,641.5,1391.8,635.8z"/>
		<path class="st4" d="M485.3,390.2c-0.4,1.4,1,4.2-2.1,4.2s-1.7-2.8-2.1-4.4c-0.1-0.4,0-0.8,0-1.1c0.2-1.6,0.3-3.3,2.4-3.1
			c1.7,0.2,1.7,1.8,1.8,3.1C485.3,389.2,485.3,389.6,485.3,390.2z"/>
		<path class="st4" d="M390.6,569.4c-2.1-0.5-4.1-1.4-4.2-3.9c-0.1-2.8,2-3.8,4.3-4.4C394.9,565.1,394.9,565.6,390.6,569.4z"/>
		<path class="st4" d="M479.1,565.7c-2,0-3.6-1.7-3.5-3.7s1.2-3.2,3.2-3.4s3.7,1.4,3.8,3.4C482.7,564.1,481.1,565.7,479.1,565.7z"/>
		<path class="st4" d="M1017.5,836c-2.1,1-0.2,2.6-0.6,3.9c-0.4,1.6-1.1,2.9-2.9,2.9c-1.8,0-2.7-1.3-2.8-2.9
			c-0.1-1.6,0.7-2.8,2.4-3.3C1014.9,836.2,1016.5,838.3,1017.5,836C1017.6,836.1,1017.5,836,1017.5,836z"/>
		<path class="st4" d="M997.1,469.3c0-1.1,0-1.6,0-2.2c0.1-1,0.6-1.8,1.7-1.9c1.1-0.1,1.7,0.6,1.9,1.7c0.1,0.5,0.2,1.1,0.1,1.7
			c-0.2,1.7,0.9,4.4-1.7,4.6C996.3,473.3,997.4,470.4,997.1,469.3z"/>
		<path class="st4" d="M341.6,563.8c1.8,0,3.5,1.8,3.3,3.7s-1.3,3.1-3.3,3.1s-3.1-1.1-3.3-3.1C338.1,565.6,339.8,563.8,341.6,563.8z
			"/>
		<path class="st4" d="M423.8,560.4c2,0.2,3.6,2.1,3.3,4c-0.3,2-1.5,3-3.5,2.9s-3.4-1.9-3.1-3.9
			C420.8,561.5,422.1,560.5,423.8,560.4z"/>
		<path class="st4" d="M1037.4,872.2c-0.2,1.6-1,2.9-2.9,2.8c-1.8-0.1-2.7-1.3-2.8-3c-0.1-1.8,1.6-3.4,3.2-3.2
			C1036.4,868.9,1037.5,870.4,1037.4,872.2z"/>
		<path class="st4" d="M481.3,368.9c0-0.8,0-1.4,0-1.9c0-1.4,0.3-2.9,1.9-3.1c1.9-0.2,2.4,1.4,2.6,3c0.1,0.6,0.1,1.1,0,1.7
			c-0.1,1.8,0.5,4.2-2.5,4C480.6,372.4,481.6,370.1,481.3,368.9z"/>
		<path class="st4" d="M285.4,584.3c-1.9-1.1-3.4-2.5-2.8-4.8c0.7-2.6,2.8-2.5,5-2.2C289.2,581.4,289.2,581.4,285.4,584.3z"/>
		<path class="st4" d="M966.1,811.1c1.6,0.3,2.6,1.5,2.6,3.2c0.1,1.8-1.8,3.4-3.3,3.1c-1.7-0.4-2.5-1.7-2.3-3.4
			C963.2,812.2,964.5,811,966.1,811.1z"/>
		<path class="st4" d="M887,724.8c-0.3,1.8-0.9,3.2-2.8,3.2c-2.2,0-3-1.4-2.9-3.3c0.1-1.7,1.1-2.8,2.9-2.7
			C886.1,722,886.7,723.4,887,724.8z"/>
		<path class="st4" d="M958.9,654.3c-0.2,2.1-0.7,3.8-2.9,3.6c-2.1-0.2-2.7-1.9-2.6-3.6c0.1-1.8,0.8-3.4,3-3.3
			C958.6,651,958.8,652.8,958.9,654.3z"/>
		<path class="st4" d="M917.4,758.9c-0.2,2.1-1.2,3.3-3.2,3.3c-1.5,0-2.4-1.1-2.5-2.6c-0.1-2,0.9-3.4,2.9-3.5
			C916.3,755.9,917.2,757.2,917.4,758.9z"/>
		<path class="st4" d="M938.4,789.1c-1.8,0-2.7-1.1-2.8-2.8c-0.1-1.6,0.5-3,2.4-3.2c2.1-0.2,3.2,1,3.2,3
			C941.2,787.8,940.2,788.9,938.4,789.1z"/>
		<path class="st4" d="M768.8,628.5c-1-2-0.7-4.1-0.6-6.2c0.1-0.9,0.8-1.3,1.6-1.3c0.9-0.1,1.5,0.7,1.4,1.4
			C770.9,624.6,772.7,627.6,768.8,628.5C768.9,628.5,768.8,628.5,768.8,628.5z"/>
		<path class="st4" d="M1312,618.8c-2.8,0-3.6-1.5-3.3-4c0.2-1.9-0.1-4.1,3-3.4C1311.7,613.8,1313.2,616.2,1312,618.8z"/>
		<path class="st4" d="M573.5,568.9c0-0.6,0-1.2,0.1-1.7c0.1-0.9,0.6-1.4,1.4-1.3c0.9,0,1.2,0.8,1.3,1.5c0.1,0.6,0.1,1.1,0.1,1.7
			c-0.2,1.3,0.7,3.6-1.5,3.4C572.7,572.4,573.9,570.2,573.5,568.9z"/>
		<path class="st4" d="M581,598.5c-0.2,1.4,0.2,3.2-1.8,3c-1.9-0.2-1.1-2.1-1.2-3.2c-0.1-1-0.3-2.6,1.3-2.6
			C581.4,595.7,580.8,597.5,581,598.5z"/>
		<path class="st4" d="M1045.5,519.9c-1.9-0.3-1.4-1.8-1.4-3.1c0-1.2,0.2-2.6,1.7-2.3c2.2,0.3,1.4,2.3,1.5,3.7
			C1047.4,519.3,1046.8,519.9,1045.5,519.9z"/>
		<path class="st4" d="M942.4,659.9c-0.2,1.1-0.6,2.2-2,2.2s-1.9-1.1-2-2.3c0-1.4,0.6-2.8,2.2-2.6
			C942,657.4,942.5,658.6,942.4,659.9z"/>
		<path class="st2" d="M1071.5,483c-0.5-3.2,0.2-6.3,0.6-9.4c0.4,3.1,1,6.3,0.5,9.4h-0.5H1071.5z"/>
		<path class="st4" d="M533.7,573.3c-1.5-2.2-1.4-3.6-0.2-5.4C534.9,569.6,534.7,571.1,533.7,573.3z"/>
		<path class="st4" d="M1048.5,536.4c-0.2,1.1,0.2,2.7-1.6,2.5c-1.2-0.1-1.1-1.4-1.1-2.3c0-1.1-0.2-2.6,1.3-2.7
			C1048.8,533.9,1048.3,535.6,1048.5,536.4z"/>
		<path class="st4" d="M537.5,594.9c1.9,1,1.4,2.5,1.4,3.7c0,0.9,0,2.1-1.4,2c-0.9-0.1-1-1-1.1-1.7
			C536.5,597.6,536.3,596.2,537.5,594.9z"/>
		<path class="st4" d="M601.6,302.1c-0.8,0-1.5-0.4-1.5-1.2c0-0.4,0.6-0.9,1-1.1c0.8-0.3,1.5,0.1,1.7,0.9
			C602.9,301.4,602.4,301.9,601.6,302.1z"/>
		<path class="st4" d="M1445.8,649.6c-0.3,0.3-0.7,0.9-1.1,0.9c-0.8,0-1.3-0.6-1.2-1.4c0.1-0.4,0.7-1,1-1
			C1445.4,648,1445.7,648.6,1445.8,649.6z"/>
		<path class="st2" d="M307.7,577.4c0-1.3,0.1-2.5,0.1-3.8c0.6,0,1.2,0,1.8,0c0.1,1.3,0.1,2.7,0.2,4
			C309.1,578.3,308.4,578.2,307.7,577.4z"/>
		<path class="st2" d="M1048.6,457.7c-0.3-1.5,0-2.9,0.4-4.9c0.5,1.9,0.7,3.4,0.4,4.9h-0.4H1048.6z"/>
		<path class="st4" d="M620.8,241.3c0.1,0.6-0.2,1.1-0.8,1.1c-0.2,0-0.7-0.4-0.7-0.6c-0.1-0.6,0.1-1.1,0.8-1.1
			C620.3,240.6,620.6,241,620.8,241.3z"/>
		<path class="st4" d="M609.5,269.6c0-0.6,0.3-1,0.9-1c0.6,0,0.9,0.5,0.9,1c0,0.3-0.3,0.7-0.6,0.8
			C610.1,270.5,609.7,270.2,609.5,269.6z"/>
		<path class="st3" d="M993.8,852.1c-0.3,0.1-0.5,0.3-0.8,0.4c-0.1-0.3-0.4-0.6-0.4-0.9c0-0.2,0.5-0.3,0.7-0.4
			C993.5,851.5,993.6,851.8,993.8,852.1z"/>
		<path class="st3" d="M1029.3,882.1c-0.1,0.1-0.1,0.3-0.2,0.4c-0.1,0.1-0.3,0-0.4-0.1c-0.3-0.4-0.2-0.6,0.3-0.6
			C1029.1,881.8,1029.2,882,1029.3,882.1z"/>
		<path class="st3" d="M1085.3,1002.9c-0.4-0.3-1-0.4-1.3-0.8c-0.2-0.3,0.2-0.7,0.5-0.5C1084.9,1002,1085.1,1002.5,1085.3,1002.9
			L1085.3,1002.9z"/>
		<path class="st3" d="M1631.7,720c0.1-0.3,0.3-0.6,0.4-0.9c0,0.1,0,0.3,0,0.4C1632,719.7,1631.9,719.8,1631.7,720L1631.7,720z"/>
		<path class="st2" d="M826.1,612c-4-6.9-9.9-10.3-18-9.6c-4.5,0.4-7.8,2.9-11.1,5.5c-1.8,1.5-1.9,4.1-2.1,6.4
			c-0.2,2.7-0.4,5.3-0.7,8c-26.1-0.5-45.8-20.7-46.1-46.6c-0.1-14.1,4.2-26.3,14.5-36.2c7.4-7.1,16.5-10.9,26.5-12.7
			c7.1-1.3,14.1-0.4,20.9,1.4c2.7,0.7,5.2,1.1,7.5-1c1.3-1.2,2.8-1,4.3-0.3c1.2,0.5,2.5,1,3.8,1.4c5,1.5,6.9,0.8,9.4-3.7
			c0.8-1.5,1.6-3,2.3-4.6c1.2-2.6,2.6-4.7,5.8-4.7c2.2,0,3.5-1.2,3.9-3.4c4-5.6,7-11.2,7.4-18.7c0.8-13.5,1.6-27,2.9-40.5
			c1.2-12.1,1.7-24.4,2.5-36.6c0.1-1.6,0.5-3,1.2-4.4c1.7,1.5,1.9,3.7,2.5,5.7c8.3,27.8,16.6,55.7,24.9,83.5
			c0.4,1.3,0.8,2.6,1.2,3.8c0.5,1.7,1.8,1.7,3.2,1.7c1.5-0.1,1.8-1.2,1.9-2.4c0.2-2.1,0.3-4.2,0.6-6.3c0.4-2.6,0.8-5.2,2.9-7.6
			c2.5,2.7,3,5.8,3.1,9c0.6,13.9,1.3,27.9,1.5,41.8c0.1,6.6,1.1,12.9,3.3,19.1c0.7,2,1.2,4,1.8,6c-4.9,2.1-9.7,4.3-15.1,5.1
			c-4.2,0.6-8.3,0.9-12.5,0.1c-4.9-0.9-5.8-0.3-7.8,4.4c-1.2,2.8-2.2,5.7-3.4,8.5c-2.7,6.3-7.6,10.1-14.3,9.4
			c-9.2-1-15.6,1.7-19.7,10.3C833.4,607.3,830.4,610.5,826.1,612z M859.2,580.2c0-1.9-0.2-3.6-2.7-3.4c-2.5,0.1-2.3,2-2.3,3.7
			c-0.1,1.7,0.3,3,2.4,3C859,583.6,859.2,581.9,859.2,580.2z M834.4,580.5c-0.2-1.2,0.5-3-1.3-3.3c-2-0.3-1.8,1.5-1.8,2.8
			c0,1.4-0.6,3.5,1.5,3.7C834.6,583.7,834.2,581.8,834.4,580.5z M796.4,571.1c-1.3,2.2-2.1,4.4,0.5,6.9
			C798,575.3,798,573.2,796.4,571.1z M814.6,573.5c-0.8,2.1-1.6,4.3,0.3,7C816.5,577.7,816.5,575.6,814.6,573.5z M892.9,551.4
			c0-0.8-0.3-1.5-1.1-1.6c-0.6,0-1,0.5-1.1,1c-0.1,0.7-0.1,1.6,0.8,1.8C892.4,552.9,892.8,552.2,892.9,551.4z M886.6,528.4
			c-0.9-0.1-1.2,0.3-1.2,0.9c0,0.5,0.3,1.2,0.6,1.3c0.9,0.3,1.3-0.4,1.3-1.1C887.3,528.9,887,528.5,886.6,528.4z"/>
		<path class="st5" d="M1277,388.6c-7.4-1.8-14.7-4.1-22.5-3.5c-5.5,0.5-6.1,0.8-5.2,6.1c0.5,3.1,0.4,6.1,0.5,9.2
			c0,3.4-0.1,6.9,0.8,10.3c0.1,0.5,0.3,1.2,0.2,1.7c-1.3,10.7-0.6,21.7-2.6,32.3c-2.2,0.2-2.9-1.3-3.9-2.3
			c-5.5-5.4-10.8-10.9-16.3-16.2c-2.9-2.9-3.5-2.8-5.4,0.8c-1.6,3-3.4,6.1-4.6,9.2c-1.9,5-5.3,7.3-10.6,6.6
			c-0.2-10.2-2.1-20.2-3-30.3c-0.4-4.8-1.3-9.5-1.6-14.3c-0.2-2.9-1.1-5.2-3.6-6.7c-2.8-1.7-4-4.3-4.3-7.6c-0.2-3.1,0-6.2-3-8.8
			c-1.9-1.6-1.2-4.7,0.2-7c1.6-2.6,3.3-5.2,5-7.7c9.7-14.7,19.3-29.5,29.1-44.1c2.3-3.4,3.3-6.7,2.9-10.7
			c-0.5-5.1-0.6-10.3-0.9-15.5c-0.1-1.4-0.1-2.8,1.8-2.9s2,1.4,2.1,2.7c0.6,7.1,1.1,14.1,1.6,21.2c-0.7,6.1,0.9,12.2,0.8,18.3
			c-0.1,9,1.5,17.9,1.4,26.9c0,4,0.5,4.3,4.4,3.9c9.8-1,19.4,0.4,29,2.2c5,1,9.2,3.7,13.7,5.5c0,1.3-0.3,2.7,0,4
			C1284.6,378.8,1281.9,384.1,1277,388.6z M1243.9,368.9c1,0,1.9-0.4,1.8-1.6c0-0.9-0.8-1.2-1.6-1.3c-1-0.1-2,0.2-2.1,1.3
			C1241.9,368.6,1242.8,369,1243.9,368.9z"/>
		<path class="st5" d="M861.1,411.5c-0.7,1.4-1.1,2.8-1.2,4.4c-0.8,12.2-1.3,24.4-2.5,36.6c-1.3,13.5-2.1,27-2.9,40.5
			c-0.4,7.5-3.4,13.1-7.4,18.7c-4.7,0-9.3,0-14,0c-2.1,0-4.1,0-5.8-1.5c3.5-12.7,7-25.4,10.6-38.1c5.3-18.7,10.7-37.5,16-56.2
			c0.5-1.7,0.7-3.4,1.8-4.8C857.3,409.1,858.3,409.2,861.1,411.5z"/>
		<path class="st3" d="M1283.2,368c-4.6-1.8-8.7-4.6-13.7-5.5c-9.6-1.8-19.2-3.2-29-2.2c-3.9,0.4-4.4,0.1-4.4-3.9
			c0.1-9-1.5-17.9-1.4-26.9c0.1-6.1-1.4-12.1-0.8-18.3c11.5,11.8,23,23.6,34.5,35.4c4.4,4.5,8.9,9,13.2,13.6
			C1283.5,362.3,1286.1,364.7,1283.2,368z"/>
		<path class="st5" d="M1189.2,410.4c-1.7,0.8-2.4,2.4-2.8,4.1c-2,8.4-4,16.8-6,25.1c-0.4,1.5-0.8,3.1,1.2,3.9
			c1.6,0.6,3.5,0.9,3.6,3.1c0.2,2.5,0.5,5-0.6,7.3c-0.3,0.5-0.7,0.9-1,1.4c-2.6,4-2.6,4,0.5,7.5c1.1,1.1,2,2.3,2.2,3.9
			c1,6,2.8,12,2.4,18.2c-0.4,6.5,1.6,12.9,1.2,19.5c-0.2,3.3-1,6.4-2.1,9.5c-0.6,1.6-1.8,2.4-3.5,2.5c-1.2-14.1-2.5-28.2-3.7-42.4
			c-0.3-3.7,0-8.1-2.4-10.4c-3.8-3.6-3-7.8-3.6-12c-0.4-2.6,0.1-5.4-1.7-7.7c-0.8-1.1-0.2-2.2,0.1-3.3c3.7-12.5,7.5-24.9,11.4-37.8
			C1187.4,404.8,1188.1,407.8,1189.2,410.4z"/>
		<path class="st5" d="M764.5,448.5c-1.6,1.8-1.9,4.1-2.5,6.3c-1.7,6.9-3.5,13.7-5.2,20.6c-0.3,1.3-0.7,2.6-1.3,3.8
			c-0.6,1.1-1.8,1.5-3,1.1c-1-0.3-1.6-1.1-1.7-2.1c-0.2-2.3-0.2-4.6-0.3-6.9c2.3-6,4.7-12.1,6.9-18.1c1.2-3.2,2.9-6.2,2.4-9.9
			c-0.2-1.7,0.7-3.1,2.6-2.9c1.7,0.1,1.9,1.6,1.9,3C764.4,445,764.4,446.7,764.5,448.5z"/>
		<path class="st4" d="M309.7,573.6c-0.6,0-1.2,0-1.8,0c-0.9-0.9-2.1-1.7-2.3-3.1c-0.3-1.6,0.1-3,1.5-3.9c1-0.7,2.1-0.7,3.2,0
			c1.5,0.9,2,2.2,1.6,3.9C311.6,571.8,310.6,572.7,309.7,573.6z"/>
		<path class="st4" d="M1140.5,533.1c0.1,1.7-0.6,2.5-1.5,3.4c-6,5.5-6,5.5-12.3,0.4c-0.1-0.1-0.3-0.2-0.5-0.3
			c-1.1-0.9-2.3-2.3-1.5-3.4c2.1-2.7,4.5-5.4,7.3-7.5c1.2-1,3,0.4,3.6,1.9c0.7,1.8,2,2.7,3.5,3.6
			C1139.9,531.7,1140.4,532.5,1140.5,533.1z"/>
		<path class="st4" d="M1166.5,583.4c0,3.8,0,7.6,0,11.4c0,1.3,0,2.9-1.9,3c-2.3,0.1-2.2-1.7-2.2-3.2c0-7.6,0-15.2,0-22.8
			c0-0.6,0.1-1.1,0.2-1.7c0.2-1.1,0.9-1.6,2-1.6c1.1,0.1,1.7,0.8,1.8,1.8c0.1,2.3,0.1,4.6,0.2,6.8
			C1166.5,579.2,1166.5,581.3,1166.5,583.4L1166.5,583.4z"/>
		<path class="st4" d="M1180.9,579.4c0-3.8,0-7.6,0-11.4c0-1.5,0.4-2.7,2.2-2.6c1.8,0.1,2.1,1.3,2.1,2.8c0,7.8,0,15.6,0,23.4
			c0,1.4-0.1,2.8-1.9,2.9c-2.3,0.2-2.3-1.5-2.4-3.1C1180.9,587.4,1180.9,583.4,1180.9,579.4z"/>
		<path class="st4" d="M1168.7,635.4c0,4.6,0,9.1,0,13.7c0,1.3-0.1,2.7-0.3,4c-0.2,1.1-1,1.5-2.1,1.4c-0.9-0.1-1.4-0.6-1.5-1.4
			c-0.2-0.9-0.2-1.9-0.2-2.8c0-9.7,0-19.4,0-29.1c0-0.9,0.1-1.9,0.2-2.8c0.1-0.8,0.7-1.3,1.5-1.4c1.1-0.1,1.9,0.3,2.1,1.4
			c0.2,1.3,0.3,2.6,0.3,4C1168.7,626.7,1168.7,631,1168.7,635.4z"/>
		<path class="st4" d="M1186.9,631.5c0,4.4,0,8.8,0,13.2c0,1.1-0.1,2.3-0.2,3.4c-0.1,1-0.7,1.8-1.8,1.8c-1.1,0-1.8-0.5-1.9-1.6
			c-0.1-0.9-0.2-1.9-0.2-2.9c0-9.2,0-18.3,0-27.5c0-0.4,0-0.8,0-1.1c0.2-1.4-0.3-3.4,1.9-3.5c2.3-0.1,2.1,1.8,2.1,3.3
			c0.1,3.4,0,6.9,0,10.3C1186.9,628.4,1186.9,629.9,1186.9,631.5z"/>
		<path class="st4" d="M1219.4,547.4c0,1,0,1.9,0,2.9c0.1,2.6-1,3.8-3.7,3.8c-2.9,0-3.6-1.5-3.5-4c0.1-2.1-0.1-4.2,0-6.3
			c0.2-3.3,1.5-5,3.7-4.8c3,0.3,3.4,2.6,3.5,5C1219.4,545.1,1219.4,546.3,1219.4,547.4L1219.4,547.4z"/>
		<path class="st4" d="M1261.1,547.2c0,1-0.1,1.9,0,2.9c0.2,2.5-0.6,3.9-3.5,4c-2.7,0-3.8-1.1-3.7-3.8c0.1-2.7,0-5.3,0.2-8
			c0.1-2,1.3-3.2,3.3-3.3s3.3,1.2,3.5,3.1c0.2,1.7,0,3.4,0,5.1C1261.1,547.2,1261.1,547.2,1261.1,547.2z"/>
		<path class="st4" d="M1224,597.2c0,5.9-0.6,6.8-3.6,6.4c-0.6-0.1-1.2-0.1-1.6-0.4c-1.9-1.3-1.3-9.9,0.8-11c1.9-1.1,3.4-0.4,4,1.6
			C1224,595.2,1224,596.7,1224,597.2z"/>
		<path class="st4" d="M1248.7,598.6c0,1.1,0.1,2.3,0,3.4c-0.1,1.8-1.4,2-2.9,2c-1.4,0-2.8-0.4-2.8-2.1c-0.1-2.3-0.1-4.6,0.1-6.9
			c0.1-1.7,1.3-2.8,3.1-2.6c1.6,0.1,2.3,1.2,2.5,2.7c0.1,1.1,0.1,2.3,0.2,3.4C1248.9,598.6,1248.8,598.6,1248.7,598.6z"/>
		<path class="st4" d="M1272.7,414.1c0.1-0.9,0.1-1.9,0.2-2.8c0.1-1,0.6-1.8,1.8-1.6c0.9,0.1,1.3,0.7,1.4,1.5
			c0.1,1.7,0.1,3.4,0.1,5.1c0,1-0.5,1.9-1.6,1.9c-1.2,0-1.6-0.9-1.7-1.8c-0.1-0.7,0-1.5,0-2.2
			C1272.8,414.1,1272.7,414.1,1272.7,414.1z"/>
		<path class="st4" d="M1230.3,476.9c1-0.8,1.3-1.2,1.6-1.2c2.1-0.1,4.5-1.2,6.2,1c0.1,0.2,0,0.9-0.2,1
			C1235.4,478.6,1232.9,478.9,1230.3,476.9z"/>
		<path class="st4" d="M1234.2,480.7c0.3,0,0.5,0,0.7,0c1.4,0.2,3.4-0.3,3.3,1.9c-0.1,1.9-1.8,1.4-3,1.6c-0.2,0-0.4,0-0.6,0
			c-1.5-0.3-3.9,0.6-3.8-1.9C1230.8,480.3,1233,481,1234.2,480.7z"/>
		<path class="st4" d="M1204.4,461.9c1.8,2.5,1.9,4,0.3,5.8C1203.1,466,1203.7,464.4,1204.4,461.9z"/>
		<path class="st4" d="M1140.3,648.5c0.7-0.1,1.1,0.2,1.2,0.8c0.2,0.8,0,1.5-0.8,1.8c-0.6,0.2-1.1-0.3-1.2-0.8
			C1139.4,649.5,1139.5,648.9,1140.3,648.5z"/>
		<path class="st4" d="M1209.6,483.2c-0.1,0.9-0.1,1.7-1,1.7c-1.3,0.1-1.2-1.1-1.3-1.9c0-0.7,0.1-1.6,1-1.6
			C1209.6,481.4,1209.4,482.5,1209.6,483.2z"/>
		<path class="st4" d="M1296,486.2c-0.2,0.2-0.6,0.7-0.7,0.7c-0.6-0.3-0.6-0.9-0.4-1.4c0.1-0.5,0.5-0.6,0.8-0.3
			C1295.9,485.4,1295.9,485.9,1296,486.2z"/>
		<path class="st4" d="M1258.5,460.2c-0.3,0.8-0.8,1.2-1.7,0.9c-0.5-0.2-1-0.6-0.8-1.2c0.2-0.8,0.8-1.2,1.6-0.9
			C1258.2,459.1,1258.7,459.5,1258.5,460.2z"/>
		<path class="st4" d="M1256.3,446.4c0,0.6-0.2,1.1-0.9,1.2c-0.7,0-0.9-0.5-0.9-1.1c0-0.3,0.3-0.8,0.6-0.9
			C1255.7,445.4,1256.2,445.8,1256.3,446.4z"/>
		<path class="st4" d="M1300,506.2c0,0.6-0.2,1.1-0.8,1.1c-0.6,0-0.9-0.5-0.8-1c0-0.3,0.3-0.8,0.5-0.8
			C1299.6,505.2,1299.9,505.6,1300,506.2z"/>
		<path class="st4" d="M665.8,306.1c-0.8-0.1-1.4-0.6-1.3-1.4c0.1-0.9,0.7-1.3,1.5-1.1c0.4,0.1,0.9,0.6,1,1.1
			C667.2,305.4,666.7,305.9,665.8,306.1z"/>
		<path class="st4" d="M667.3,214.6c-0.7-0.1-0.9-0.6-0.9-1.2c0-0.6,0.3-1.2,0.9-1.2c0.6,0,1,0.6,1,1.2S668,214.4,667.3,214.6z"/>
		<path class="st4" d="M665.7,273.5c-0.6-0.1-1-0.6-0.9-1.4c0.1-0.6,0.5-1.1,1.1-1.1c0.9,0,1.3,0.7,1.2,1.5
			C667,273.1,666.7,273.5,665.7,273.5z"/>
		<path class="st4" d="M667.1,238.1c0.7,0.2,0.9,0.7,0.9,1.3s-0.2,1.3-0.9,1.3c-0.6,0-0.9-0.7-0.9-1.3
			C666.2,238.7,666.5,238.2,667.1,238.1z"/>
		<path class="st4" d="M667.5,196.4c0.3,0.1,0.8,0.1,1,0.4c0.3,0.6,0.2,1.2-0.4,1.4c-0.2,0.1-0.8-0.1-1-0.4
			C666.8,197.3,666.9,196.7,667.5,196.4z"/>
		<path class="st4" d="M740.3,614.1c-0.9-4.9-0.3-9.9-0.4-14.8c-0.1-3.5,2.3-3.3,4.6-3.4c2.5-0.1,4,0.6,3.9,3.5
			c-0.1,3.4,0.1,6.9,0,10.3c-0.1,4-0.2,4.1-4.2,4.3C742.9,614,741.6,614,740.3,614.1L740.3,614.1z"/>
		<path class="st4" d="M894,625.6c0-4.2,0.5-4.8,3.8-4.7c3.1,0.1,3.6,0.6,3.7,4.3c0.1,4.1-0.5,4.9-3.6,5
			C894.6,630.3,894.1,629.7,894,625.6z"/>
		<path class="st4" d="M890.8,579.5c1.7,0.4,1.2,1.9,1.2,3.1c0,1.2-0.4,2.4-1.9,2.1c-2.1-0.4-1.4-2.3-1.4-3.7
			C888.7,579.9,889.5,579.4,890.8,579.5z"/>
		<path class="st4" d="M863.4,638.3c-1.4-0.3-2-1.1-1.9-2.4c0.1-1.2,0.8-2.2,2.2-2.1c1.4,0.1,1.9,1.1,1.8,2.4
			C865.4,637.5,864.8,638.3,863.4,638.3z"/>
		<path class="st4" d="M1376.4,936.5c0,1.3,0.1,2.7,0,4c-0.1,2.1-1.6,2.3-3.3,2.3c-1.5,0-2.7-0.4-2.8-2.2c-0.1-2.1-0.1-4.2-0.1-6.3
			s0.3-3.7,3.1-3.7c2.7,0,3.3,1.4,3.2,3.6C1376.4,934.9,1376.4,935.7,1376.4,936.5L1376.4,936.5z"/>
		<path class="st4" d="M1390.3,936.9c0,1.1,0,2.3,0,3.4c0,1.9-1.1,2.6-2.9,2.6c-2,0-3.3-0.6-3.3-2.8c0-2.1,0-4.1,0-6.2
			c0-2,0.7-3.1,2.9-3.2c2.5-0.1,3.4,1.1,3.3,3.4C1390.3,935,1390.3,936,1390.3,936.9L1390.3,936.9z"/>
		<path class="st4" d="M1403.2,937.5c-0.1,1.2-0.1,2.5-0.3,3.8c-0.1,1.1-0.8,1.7-1.9,1.7c-1.2,0-2.4-0.2-2.5-1.6
			c-0.2-2.6-0.1-5.3-0.1-7.9c0-1.3,0.9-2,2.2-2c1.3,0,2.1,0.6,2.3,1.9C1403.1,934.8,1403.1,936.1,1403.2,937.5z"/>
		<path class="st2" d="M421.7,510.6c-0.1,4.9-0.3,9.9-0.4,14.8C420.1,520.4,419.6,515.5,421.7,510.6z"/>
		<path class="st2" d="M422.7,494.6c0.5,4.1,0.1,8.3-0.5,12.4C421.3,502.8,420.8,498.6,422.7,494.6z"/>
		<path class="st4" d="M859.2,580.2c0,1.7-0.1,3.4-2.6,3.3c-2.1-0.1-2.5-1.3-2.4-3s-0.2-3.6,2.3-3.7
			C858.9,576.6,859.2,578.3,859.2,580.2z"/>
		<path class="st4" d="M834.4,580.5c-0.1,1.3,0.2,3.3-1.6,3.2c-2.1-0.1-1.5-2.3-1.5-3.7c0-1.2-0.3-3.1,1.8-2.8
			C834.9,577.5,834.2,579.3,834.4,580.5z"/>
		<path class="st4" d="M796.4,571.1c1.6,2.1,1.6,4.2,0.5,6.9C794.3,575.5,795.1,573.3,796.4,571.1z"/>
		<path class="st4" d="M814.6,573.5c1.9,2.1,1.9,4.1,0.3,7C813,577.9,813.8,575.7,814.6,573.5z"/>
		<path class="st4" d="M892.9,551.4c-0.1,0.8-0.5,1.4-1.4,1.3c-0.9-0.2-0.9-1-0.8-1.8c0.1-0.6,0.5-1.1,1.1-1
			C892.6,549.9,892.9,550.6,892.9,551.4z"/>
		<path class="st4" d="M886.6,528.4c0.4,0.1,0.7,0.5,0.7,1.1c0,0.8-0.4,1.4-1.3,1.1c-0.3-0.1-0.5-0.9-0.6-1.3
			C885.4,528.7,885.7,528.3,886.6,528.4z"/>
		<path class="st4" d="M1243.9,368.9c-1,0-1.9-0.4-1.8-1.5s1.1-1.4,2.1-1.3c0.8,0.1,1.5,0.4,1.6,1.3
			C1245.7,368.6,1244.9,368.9,1243.9,368.9z"/>
	</g>
</g>
</svg>
